<svg width="14" height="12" viewBox="0 0 14 12" fill="none" xmlns="http://www.w3.org/2000/svg">
<path d="M7.69684 1.63953L11.3907 5.33333H1.00016C0.63197 5.33333 0.333496 5.63187 0.333496 6C0.333496 6.3682 0.63197 6.66667 1.00016 6.66667H11.3907L7.69684 10.3605C7.43651 10.6209 7.43651 11.043 7.69684 11.3033C7.95724 11.5637 8.37931 11.5637 8.63964 11.3033L13.4716 6.47147C13.7319 6.21107 13.7319 5.789 13.4716 5.5286L8.63964 0.696727C8.50904 0.566101 8.33771 0.501014 8.16651 0.501467C8.12444 0.501581 8.08238 0.505647 8.04091 0.513667C7.91484 0.538074 7.79451 0.599094 7.69684 0.696727C7.43651 0.957074 7.43651 1.37919 7.69684 1.63953Z" fill="#0F0005"/>
</svg>
