<svg width="40" height="40" viewBox="0 0 40 40" fill="none" xmlns="http://www.w3.org/2000/svg">
<path d="M16.666 33.3332C16.666 32.4127 15.9198 31.6665 14.9993 31.6665C14.0789 31.6665 13.3327 32.4127 13.3327 33.3332C13.3327 34.2536 14.0789 34.9998 14.9993 34.9998C15.9198 34.9998 16.666 34.2536 16.666 33.3332ZM31.666 33.3332C31.666 32.4127 30.9198 31.6665 29.9993 31.6665C29.0789 31.6665 28.3327 32.4127 28.3327 33.3332C28.3327 34.2536 29.0789 34.9998 29.9993 34.9998C30.9198 34.9998 31.666 34.2536 31.666 33.3332ZM29.9993 11.6665V21.6665H33.3327V11.6665H29.9993ZM21.666 21.6665H26.666V11.6665H21.666V21.6665ZM34.9993 33.3332C34.9993 36.0946 32.7608 38.3332 29.9993 38.3332C27.2379 38.3332 24.9993 36.0946 24.9993 33.3332C24.9993 32.7482 25.1044 32.1883 25.2891 31.6665H19.7096C19.8943 32.1883 19.9993 32.7482 19.9993 33.3332C19.9993 36.0946 17.7608 38.3332 14.9993 38.3332C12.2379 38.3332 9.99935 36.0946 9.99935 33.3332C9.99935 32.7482 10.1044 32.1883 10.2891 31.6665H9.99935C8.67327 31.6665 7.40187 31.1393 6.46419 30.2017C5.64386 29.3813 5.13753 28.3057 5.02376 27.1613L4.99935 26.6665V11.6665C4.99935 11.2245 4.82363 10.8007 4.51107 10.4881C4.2375 10.2145 3.87874 10.0458 3.49707 10.008L3.33268 9.99984L3.16178 9.9917C2.32157 9.90615 1.66602 9.19596 1.66602 8.33317C1.66602 7.4127 2.41221 6.6665 3.33268 6.6665L3.82747 6.69092C4.97187 6.80468 6.04751 7.31102 6.86784 8.13135C7.80552 9.06903 8.33268 10.3404 8.33268 11.6665V26.6665L8.34082 26.8309C8.37864 27.2126 8.54739 27.5713 8.82096 27.8449C9.13352 28.1574 9.55732 28.3332 9.99935 28.3332H36.666C37.5865 28.3332 38.3327 29.0794 38.3327 29.9998C38.3327 30.9203 37.5865 31.6665 36.666 31.6665H34.7096C34.8943 32.1883 34.9993 32.7482 34.9993 33.3332ZM14.9993 21.6665H18.3327V11.6665H14.9993V21.6665ZM26.666 6.6665C26.666 6.22448 26.4903 5.80068 26.1777 5.48812C25.8652 5.17556 25.4414 4.99984 24.9993 4.99984H23.3327C22.8907 4.99984 22.4669 5.17556 22.1543 5.48812C21.8417 5.80068 21.666 6.22448 21.666 6.6665V8.33317H26.666V6.6665ZM29.9993 8.33317H33.3327C35.1736 8.33317 36.666 9.82555 36.666 11.6665V21.6665C36.666 23.5075 35.1736 24.9998 33.3327 24.9998H14.9993C13.1584 24.9998 11.666 23.5075 11.666 21.6665V11.6665C11.666 9.82555 13.1584 8.33317 14.9993 8.33317H18.3327V6.6665C18.3327 5.34042 18.8598 4.06903 19.7975 3.13135C20.7352 2.19367 22.0066 1.6665 23.3327 1.6665H24.9993C26.3254 1.6665 27.5968 2.19367 28.5345 3.13135C29.4722 4.06903 29.9993 5.34042 29.9993 6.6665V8.33317Z" fill="#0F0005"/>
</svg>
