<svg width="40" height="40" viewBox="0 0 40 40" fill="none" xmlns="http://www.w3.org/2000/svg">
<path fill-rule="evenodd" clip-rule="evenodd" d="M6.68068 30.4308C6.67159 30.2885 6.66699 30.1448 6.66699 30.0002V10.0002C6.66699 6.31826 9.65176 3.3335 13.3337 3.3335H30.0003C31.8413 3.3335 33.3337 4.82588 33.3337 6.66683V33.3335C33.3337 35.1745 31.8413 36.6668 30.0003 36.6668H12.5003C9.27866 36.6668 6.66699 34.0552 6.66699 30.8335C6.66699 30.6982 6.67161 30.5638 6.68068 30.4308ZM10.0003 10.0002C10.0003 8.15921 11.4927 6.66683 13.3337 6.66683H30.0003V25.0002H12.5003C11.6057 25.0002 10.758 25.2015 10.0003 25.5615V10.0002ZM10.03 30.447C10.2158 29.2498 11.2511 28.3335 12.5003 28.3335H30.0003V33.3335H13.3337C11.6442 33.3335 10.2484 32.0767 10.03 30.447Z" fill="#0F0005"/>
</svg>
