<svg width="40" height="40" viewBox="0 0 40 40" fill="none" xmlns="http://www.w3.org/2000/svg">
<path fill-rule="evenodd" clip-rule="evenodd" d="M6.66732 8.33301H10.0007V6.24967C10.0007 5.32919 10.7469 4.58301 11.6673 4.58301C12.5878 4.58301 13.334 5.32919 13.334 6.24967V8.33301H26.6673V6.24967C26.6673 5.32919 27.4135 4.58301 28.334 4.58301C29.2545 4.58301 30.0007 5.32919 30.0007 6.24967V8.33301H33.334C35.175 8.33301 36.6673 9.82539 36.6673 11.6663V31.6664C36.6673 33.5074 35.175 34.9997 33.334 34.9997H6.66732C4.82637 34.9997 3.33398 33.5074 3.33398 31.6664V11.6663C3.33398 9.82539 4.82637 8.33301 6.66732 8.33301ZM6.66732 31.6664V18.333H33.334V31.6664H6.66732ZM33.334 11.6663V14.9997H6.66732V11.6663H33.334Z" fill="#0F0005"/>
</svg>
