<svg width="56" height="56" viewBox="0 0 56 56" fill="none" xmlns="http://www.w3.org/2000/svg">
<path d="M37.3333 23.3335C37.3333 24.6222 36.2887 25.6668 35 25.6668H21C19.7113 25.6668 18.6667 24.6222 18.6667 23.3335C18.6667 22.0448 19.7113 21.0002 21 21.0002H35C36.2887 21.0002 37.3333 22.0448 37.3333 23.3335Z" fill="#0F0005"/>
<path d="M32.6667 32.6668C32.6667 33.9555 31.622 35.0002 30.3333 35.0002H21C19.7113 35.0002 18.6667 33.9555 18.6667 32.6668C18.6667 31.3781 19.7113 30.3335 21 30.3335H30.3333C31.622 30.3335 32.6667 31.3781 32.6667 32.6668Z" fill="#0F0005"/>
<path fill-rule="evenodd" clip-rule="evenodd" d="M23.3333 2.3335C20.756 2.3335 18.6667 4.42283 18.6667 7.00016H14C11.4227 7.00016 9.33333 9.0895 9.33333 11.6668V46.6668C9.33333 49.2442 11.4227 51.3335 14 51.3335H42C44.5774 51.3335 46.6667 49.2442 46.6667 46.6668V11.6668C46.6667 9.0895 44.5774 7.00016 42 7.00016H37.3333C37.3333 4.42283 35.2441 2.3335 32.6667 2.3335H23.3333ZM37.3333 11.6668C37.3333 14.2442 35.2441 16.3335 32.6667 16.3335H23.3333C20.756 16.3335 18.6667 14.2442 18.6667 11.6668H14V46.6668H42V11.6668H37.3333ZM23.3333 7.00016H32.6667V11.6668H23.3333V7.00016Z" fill="#0F0005"/>
</svg>
