<svg width="38" height="42" viewBox="0 0 38 42" fill="none" xmlns="http://www.w3.org/2000/svg">
<path fill-rule="evenodd" clip-rule="evenodd" d="M28.3333 9.33333C28.3333 14.488 24.1546 18.6667 19 18.6667C13.8453 18.6667 9.66667 14.488 9.66667 9.33333C9.66667 4.17867 13.8453 0 19 0C24.1546 0 28.3333 4.17867 28.3333 9.33333ZM23.6667 9.33333C23.6667 11.9107 21.5774 14 19 14C16.4226 14 14.3333 11.9107 14.3333 9.33333C14.3333 6.756 16.4226 4.66667 19 4.66667C21.5774 4.66667 23.6667 6.756 23.6667 9.33333Z" fill="#0F0005"/>
<path fill-rule="evenodd" clip-rule="evenodd" d="M37.6667 33.0554C37.6667 32.0444 37.3498 31.0506 36.6902 30.2843C32.4111 25.3139 26.073 22.1667 19 22.1667C11.9269 22.1667 5.58882 25.3139 1.30976 30.2843C0.650105 31.0506 0.333332 32.0444 0.333332 33.0554V37.3333C0.333332 39.9107 2.42267 42 5 42H33C35.5774 42 37.6667 39.9107 37.6667 37.3333V33.0554ZM33 33.1527C29.573 29.2705 24.5736 26.8333 19 26.8333C13.4264 26.8333 8.42701 29.2705 5 33.1527V37.3333H33V33.1527Z" fill="#0F0005"/>
</svg>
