<svg width="34" height="35" viewBox="0 0 34 35" fill="none" xmlns="http://www.w3.org/2000/svg">
<path d="M8.66634 0.833496C3.66634 0.833496 0.333008 5.8335 0.333008 10.8335C0.333008 14.3502 1.99967 19.1668 3.66634 20.8335C5.33301 22.5002 6.99967 34.1668 10.333 34.1668C17.8997 34.1668 13.6663 22.5002 16.9997 22.5002C20.333 22.5002 16.0997 34.1668 23.6663 34.1668C26.9997 34.1668 28.6663 22.5002 30.333 20.8335C31.9997 19.1668 33.6663 14.3502 33.6663 10.8335C33.6663 5.8335 30.333 0.833496 25.333 0.833496C20.333 0.833496 20.333 2.50016 16.9997 2.50016C13.6663 2.50016 13.6663 0.833496 8.66634 0.833496ZM8.66634 4.16683C11.9997 4.16683 13.6663 5.8335 16.9997 5.8335C20.333 5.8335 21.9997 4.16683 25.333 4.16683C28.1163 4.16683 30.333 7.50016 30.333 10.8335C30.333 13.7502 28.8997 17.6835 27.3163 19.2668C25.883 20.7002 23.7663 30.7335 22.833 30.7335C22.483 30.7335 21.9997 28.9668 21.9997 26.8168C21.9997 23.4168 21.0497 19.1668 16.9997 19.1668C12.9497 19.1668 11.9997 23.4168 11.9997 26.8168C11.9997 28.9668 11.5163 30.7335 11.1663 30.7335C10.233 30.7335 8.11634 20.7002 6.68301 19.2668C5.09967 17.6835 3.66634 13.7502 3.66634 10.8335C3.66634 7.50016 5.88301 4.16683 8.66634 4.16683Z" fill="#FF6700"/>
</svg>
