<svg width="38" height="34" viewBox="0 0 38 34" fill="none" xmlns="http://www.w3.org/2000/svg">
<path d="M20.6665 31.9999V26.9999C20.6665 26.5579 20.4908 26.1341 20.1782 25.8215C19.9046 25.548 19.5459 25.3792 19.1642 25.3414L18.9998 25.3333C18.5578 25.3333 18.134 25.509 17.8214 25.8215C17.5089 26.1341 17.3332 26.5579 17.3332 26.9999V31.9999C17.3332 32.9204 16.587 33.6666 15.6665 33.6666C14.746 33.6666 13.9998 32.9204 13.9998 31.9999V26.9999C13.9998 25.6738 14.527 24.4024 15.4647 23.4648C16.4024 22.5271 17.6738 21.9999 18.9998 21.9999L19.4946 22.0243C20.639 22.1381 21.7147 22.6444 22.535 23.4648C23.4727 24.4024 23.9998 25.6738 23.9998 26.9999V31.9999C23.9998 32.9204 23.2536 33.6666 22.3332 33.6666C21.4127 33.6666 20.6665 32.9204 20.6665 31.9999ZM17.3332 15.3333V13.6666H15.6665C14.746 13.6666 13.9998 12.9204 13.9998 11.9999C13.9998 11.0794 14.746 10.3333 15.6665 10.3333H17.3332V8.66659C17.3332 7.74611 18.0794 6.99992 18.9998 6.99992C19.9203 6.99992 20.6665 7.74611 20.6665 8.66659V10.3333H22.3332C23.2536 10.3333 23.9998 11.0794 23.9998 11.9999C23.9998 12.9204 23.2536 13.6666 22.3332 13.6666H20.6665V15.3333C20.6665 16.2537 19.9203 16.9999 18.9998 16.9999C18.0794 16.9999 17.3332 16.2537 17.3332 15.3333Z" fill="#FF6700"/>
<path d="M0.666504 28.6666V13.6666C0.666504 12.3405 1.19367 11.0691 2.13135 10.1314C3.06903 9.19375 4.34042 8.66659 5.6665 8.66659H8.99984C9.92031 8.66659 10.6665 9.41278 10.6665 10.3333C10.6665 11.2537 9.92031 11.9999 8.99984 11.9999H5.6665C5.22448 11.9999 4.80068 12.1756 4.48812 12.4882C4.17556 12.8008 3.99984 13.2246 3.99984 13.6666V28.6666C3.99984 29.1086 4.17556 29.5324 4.48812 29.845C4.80068 30.1575 5.22448 30.3333 5.6665 30.3333H32.3332C32.7752 30.3333 33.199 30.1575 33.5116 29.845C33.8241 29.5324 33.9998 29.1086 33.9998 28.6666V18.6666C33.9998 18.2246 33.8241 17.8008 33.5116 17.4882C33.199 17.1756 32.7752 16.9999 32.3332 16.9999H28.9998C28.0794 16.9999 27.3332 16.2537 27.3332 15.3333C27.3332 14.4128 28.0794 13.6666 28.9998 13.6666H32.3332C33.6593 13.6666 34.9306 14.1937 35.8683 15.1314C36.806 16.0691 37.3332 17.3405 37.3332 18.6666V28.6666C37.3332 29.9927 36.806 31.2641 35.8683 32.2017C34.9306 33.1394 33.6593 33.6666 32.3332 33.6666H5.6665C4.34042 33.6666 3.06903 33.1394 2.13135 32.2017C1.19367 31.2641 0.666504 29.9927 0.666504 28.6666Z" fill="#FF6700"/>
<path d="M27.3332 31.9999V5.33325C27.3332 4.89123 27.1574 4.46743 26.8449 4.15487C26.5323 3.84231 26.1085 3.66659 25.6665 3.66659H12.3332C11.8911 3.66659 11.4673 3.84231 11.1548 4.15487C10.8422 4.46743 10.6665 4.89122 10.6665 5.33325V31.9999C10.6665 32.9204 9.92031 33.6666 8.99984 33.6666C8.07936 33.6666 7.33317 32.9204 7.33317 31.9999V5.33325C7.33317 4.00717 7.86033 2.73578 8.79801 1.7981C9.7357 0.860414 11.0071 0.333252 12.3332 0.333252H25.6665C26.9926 0.333252 28.264 0.860414 29.2017 1.7981C30.1393 2.73578 30.6665 4.00717 30.6665 5.33325V31.9999C30.6665 32.9204 29.9203 33.6666 28.9998 33.6666C28.0794 33.6666 27.3332 32.9204 27.3332 31.9999Z" fill="#FF6700"/>
</svg>
