<svg width="40" height="40" viewBox="0 0 40 40" fill="none" xmlns="http://www.w3.org/2000/svg">
<path fill-rule="evenodd" clip-rule="evenodd" d="M19.9997 6.66634C12.6359 6.66634 6.66634 12.6359 6.66634 19.9997C6.66634 27.3635 12.6359 33.333 19.9997 33.333C27.3635 33.333 33.333 27.3635 33.333 19.9997C33.333 12.6359 27.3635 6.66634 19.9997 6.66634ZM3.33301 19.9997C3.33301 10.7949 10.7949 3.33301 19.9997 3.33301C29.2044 3.33301 36.6663 10.7949 36.6663 19.9997C36.6663 29.2044 29.2044 36.6663 19.9997 36.6663C10.7949 36.6663 3.33301 29.2044 3.33301 19.9997ZM19.9997 9.99967C20.9202 9.99967 21.6663 10.7459 21.6663 11.6663V12.4997H21.7928C22.9625 12.4997 24.0952 12.9098 24.9938 13.6586L25.2333 13.8582C25.9404 14.4475 26.036 15.4984 25.4467 16.2055C24.8574 16.9127 23.8065 17.0082 23.0994 16.4189L22.8598 16.2193C22.5603 15.9697 22.1827 15.833 21.7928 15.833H17.9163C17.226 15.833 16.6663 16.3927 16.6663 17.083C16.6663 17.7734 17.226 18.333 17.9163 18.333H22.083C24.6143 18.333 26.6663 20.385 26.6663 22.9163C26.6663 25.4476 24.6143 27.4997 22.083 27.4997H21.6663V28.333C21.6663 29.2535 20.9202 29.9997 19.9997 29.9997C19.0792 29.9997 18.333 29.2535 18.333 28.333V27.4997H17.353C16.0513 27.4997 14.8009 26.992 13.8676 26.0847L13.8675 26.0846L13.8378 26.0557C13.1779 25.4141 13.1631 24.3589 13.8047 23.699C14.4464 23.039 15.5015 23.0242 16.1615 23.6658L16.1912 23.6947C16.1912 23.6947 16.1912 23.6947 16.1912 23.6947C16.5023 23.9971 16.9191 24.1663 17.353 24.1663H22.083C22.7734 24.1663 23.333 23.6067 23.333 22.9163C23.333 22.226 22.7734 21.6663 22.083 21.6663H17.9163C15.385 21.6663 13.333 19.6143 13.333 17.083C13.333 14.5517 15.385 12.4997 17.9163 12.4997H18.333V11.6663C18.333 10.7459 19.0792 9.99967 19.9997 9.99967Z" fill="#0F0005"/>
</svg>
