<svg width="40" height="40" viewBox="0 0 40 40" fill="none" xmlns="http://www.w3.org/2000/svg">
<path d="M35.0006 8.33317C35.0006 7.43857 34.9895 6.93437 34.8932 6.54932C34.8256 6.27933 34.7335 6.13044 34.4928 5.96989C34.1679 5.75328 33.514 5.4885 32.2044 5.29443C30.9158 5.10354 29.1336 4.99985 26.6673 4.99984C23.4194 4.99984 21.2312 5.41497 19.9127 6.07406C19.2773 6.39179 18.9004 6.73811 18.679 7.07015C18.4645 7.39182 18.3339 7.79148 18.3339 8.33317C18.3339 9.40975 18.3733 10.4287 18.4397 11.3931C18.4652 11.4863 18.4844 11.5832 18.4935 11.6828C18.5044 11.8034 18.5011 11.9221 18.4869 12.0376C18.9298 17.225 20.2853 20.7556 21.804 23.0337C23.2369 25.1829 24.7564 26.1589 25.8112 26.507C25.9917 26.5225 26.1643 26.5655 26.3239 26.6339C26.4507 26.6547 26.5658 26.6665 26.6673 26.6665C27.5907 26.6662 29.6367 25.8745 31.5306 23.0337C33.3864 20.2498 35.0006 15.5955 35.0006 8.33317ZM15.3229 13.8312C14.1128 14.1872 12.6478 14.818 10.8046 15.7925C7.98222 17.4079 6.30367 18.8696 5.50029 20.0991C5.1114 20.6944 4.96062 21.1837 4.93714 21.5802C4.9201 21.868 4.96521 22.1673 5.10152 22.4901L5.27079 22.8221L5.2773 22.8335L5.95927 23.9777C9.37222 29.5223 12.8347 32.4466 15.6549 33.8394C18.7326 35.3591 20.8931 35.0123 21.6559 34.5636L21.6901 34.5425L21.8431 34.4448C22.554 33.9304 23.7026 32.3372 23.9492 29.3488C22.6887 28.7701 21.4036 27.8059 20.2268 26.4517C19.8534 26.7591 19.3531 26.8996 18.8532 26.8032L18.6871 26.7625L18.5488 26.73C17.8447 26.5996 17.0225 27.0302 16.7747 27.9377C16.5326 28.8255 15.6167 29.3497 14.7288 29.1079C13.841 28.8658 13.3168 27.9498 13.5586 27.062C14.1517 24.8872 16.0528 23.4436 18.1305 23.3739C17.5957 22.3741 17.1084 21.2516 16.6852 19.9982L16.6836 19.9998H16.6673C15.7468 19.9998 15.0006 19.2536 15.0006 18.3332C15.0006 17.7151 15.3375 17.1773 15.8372 16.8895C15.6307 15.93 15.4565 14.9117 15.3229 13.8312ZM10.8502 20.1659L11.0211 20.1756C11.861 20.2612 12.5166 20.9701 12.5169 21.8325C12.5169 22.6953 11.8613 23.4054 11.0211 23.491L10.8502 23.4992H10.8339C9.91347 23.4992 9.16728 22.753 9.16728 21.8325C9.16763 20.9123 9.91369 20.1659 10.8339 20.1659H10.8502ZM27.8213 15.3221C28.4721 14.6712 29.5271 14.6712 30.178 15.3221C30.8288 15.973 30.8289 17.028 30.178 17.6789C28.2557 19.6007 25.3285 19.6603 23.3437 17.8579L23.1549 17.6789L23.041 17.5519C22.5069 16.8974 22.545 15.9324 23.1549 15.3221C23.7649 14.7121 24.7301 14.6731 25.3847 15.2065L25.5117 15.3221L25.6435 15.4409C26.3119 16.0004 27.1816 15.9613 27.8213 15.3221ZM23.3502 8.33317C24.2707 8.33322 25.0169 9.0794 25.0169 9.99984C25.0169 10.9203 24.2707 11.6664 23.3502 11.6665H23.3339C22.4135 11.6665 21.6673 10.9203 21.6673 9.99984C21.6673 9.07936 22.4135 8.33317 23.3339 8.33317H23.3502ZM30.0169 8.33317C30.9373 8.33322 31.6836 9.0794 31.6836 9.99984C31.6836 10.9203 30.9373 11.6664 30.0169 11.6665H30.0006C29.0801 11.6665 28.3339 10.9203 28.3339 9.99984C28.3339 9.07936 29.0801 8.33317 30.0006 8.33317H30.0169ZM38.3339 8.33317C38.3339 16.0704 36.6147 21.4165 34.304 24.8826C32.2079 28.0267 29.5311 29.7211 27.2369 29.9657C26.8456 33.6701 25.2645 36.3458 23.3437 37.4347L23.3453 37.4364C23.3412 37.4388 23.3365 37.4405 23.3323 37.4429C23.3246 37.4472 23.3173 37.4532 23.3095 37.4575L23.3079 37.4543C21.2339 38.6513 17.8299 38.6307 14.1787 36.8276C10.4371 34.9799 6.25966 31.2075 2.38993 24.5002L2.39156 24.4985C1.82978 23.5388 1.54483 22.4896 1.61031 21.3833C1.67536 20.2851 2.07713 19.2434 2.70895 18.2762C3.94519 16.384 6.17638 14.5984 9.17379 12.8856L9.22099 12.8595C11.3965 11.7078 13.3057 10.8739 15.0494 10.4507C15.02 9.7656 15.0006 9.06004 15.0006 8.33317C15.0006 7.2082 15.2867 6.14952 15.9056 5.22119C16.5175 4.30341 17.3909 3.60777 18.4218 3.09229C20.4367 2.08496 23.249 1.6665 26.6673 1.6665C29.2005 1.66652 31.1689 1.77116 32.6927 1.99691C34.195 2.21951 35.4168 2.57981 36.3418 3.19645C37.3504 3.86899 37.8824 4.76266 38.1272 5.74202C38.3433 6.60684 38.3339 7.56125 38.3339 8.33317Z" fill="#0F0005"/>
</svg>
