<svg width="34" height="34" viewBox="0 0 34 34" fill="none" xmlns="http://www.w3.org/2000/svg">
<path fill-rule="evenodd" clip-rule="evenodd" d="M8.80969 32.6903L18.3996 23.1004C19.5335 23.468 20.7436 23.6666 22 23.6666C28.4434 23.6666 33.6667 18.4432 33.6667 11.9999C33.6667 10.1952 33.257 8.48627 32.5254 6.96097C32.079 6.03013 30.8585 5.92752 30.1285 6.65751L24.3693 12.4167L22 12L21.5834 9.63075L27.3426 3.87152C28.0726 3.14153 27.97 1.9211 27.0392 1.47465C25.5138 0.743041 23.8048 0.333252 22 0.333252C15.5567 0.333252 10.3334 5.5566 10.3334 11.9999C10.3334 13.2564 10.532 14.4664 10.8995 15.6004L1.30969 25.1903C0.684565 25.8154 0.297981 26.6709 0.458871 27.5401C1.02168 30.581 3.41896 32.9783 6.45982 33.5411C7.32911 33.702 8.18457 33.3154 8.80969 32.6903ZM18.6132 7.88688C18.2289 8.2712 18.0561 8.81877 18.1502 9.35407L18.9194 13.7279C19.0409 14.4185 19.5816 14.9592 20.2722 15.0807L24.646 15.8498C25.1813 15.944 25.7289 15.7712 26.1132 15.3869L30.2961 11.204C30.3208 11.4656 30.3334 11.7311 30.3334 11.9999C30.3334 16.6023 26.6024 20.3333 22 20.3333C21.0968 20.3333 20.2334 20.1908 19.4273 19.9295C18.2358 19.5433 16.9282 19.8577 16.0425 20.7434L6.62865 30.1573C5.29802 29.7562 4.24379 28.7019 3.8427 27.3713L13.2566 17.9574C14.1423 17.0717 14.4567 15.7642 14.0705 14.5726C13.8092 13.7666 13.6667 12.9032 13.6667 11.9999C13.6667 7.39755 17.3977 3.66659 22 3.66659C22.2689 3.66659 22.5345 3.67922 22.7962 3.7039L18.6132 7.88688ZM6.44022 30.3444C6.44022 30.3444 6.44124 30.3435 6.44348 30.3419C6.44137 30.3437 6.44022 30.3444 6.44022 30.3444ZM3.65552 27.5597C3.65552 27.5597 3.6563 27.5586 3.6581 27.5565C3.65647 27.5587 3.65552 27.5597 3.65552 27.5597Z" fill="#FF6700"/>
</svg>
