<svg width="34" height="37" viewBox="0 0 34 37" fill="none" xmlns="http://www.w3.org/2000/svg">
<path d="M19.4997 16.8098L22.9758 13.3335C23.6268 12.6826 24.682 12.6826 25.333 13.3335C25.9838 13.9844 25.9838 15.0397 25.333 15.6905L20.6782 20.3453C20.3655 20.6578 19.9417 20.8335 19.4995 20.8335C19.0575 20.8335 18.6337 20.6578 18.321 20.3453L14.4997 16.5238L11.0233 20.0002C10.3724 20.651 9.31717 20.651 8.6663 20.0002C8.01542 19.3493 8.01542 18.294 8.6663 17.6432L13.3211 12.9883C13.6337 12.6758 14.0577 12.5002 14.4997 12.5002C14.9417 12.5002 15.3657 12.6758 15.6782 12.9883L19.4997 16.8098Z" fill="#FF6700"/>
<path fill-rule="evenodd" clip-rule="evenodd" d="M16.9997 0.833496C16.0792 0.833496 15.333 1.5797 15.333 2.50016V4.16683H3.66634C1.82539 4.16683 0.333008 5.65921 0.333008 7.50016V25.8335C0.333008 27.6745 1.82539 29.1668 3.66634 29.1668H7.83081L5.30339 33.5575C4.84417 34.3553 5.11862 35.3743 5.91637 35.8335C6.71412 36.2927 7.73309 36.0183 8.19229 35.2205L11.6769 29.1668H22.4058L25.8905 35.2205C26.3497 36.0183 27.3687 36.2927 28.1663 35.8335C28.9642 35.3743 29.2385 34.3553 28.7793 33.5575L26.252 29.1668H30.333C32.174 29.1668 33.6663 27.6745 33.6663 25.8335V7.50016C33.6663 5.65921 32.174 4.16683 30.333 4.16683H18.6663V2.50016C18.6663 1.5797 17.9202 0.833496 16.9997 0.833496ZM3.66634 7.50016V25.8335H30.333V7.50016H3.66634Z" fill="#FF6700"/>
</svg>
