<svg width="40" height="40" viewBox="0 0 40 40" fill="none" xmlns="http://www.w3.org/2000/svg">
<path d="M21.6587 6.50212C21.6209 6.12045 21.4522 5.76169 21.1786 5.48812C20.905 5.21455 20.5463 5.04579 20.1646 5.00797L20.0002 4.99984C19.5582 4.99984 19.1344 5.17556 18.8218 5.48812C18.5093 5.80068 18.3335 6.22448 18.3335 6.6665V34.9998H21.6669V6.6665L21.6587 6.50212ZM25.0002 13.3332H32.6434L34.3101 11.6665L32.6434 9.99984H25.0002V13.3332ZM5.6903 11.6665L7.35697 13.3332H15.0002V9.99984H7.35697L5.6903 11.6665ZM33.3335 6.6665C33.7756 6.6665 34.1994 6.84222 34.5119 7.15478L37.8453 10.4881C38.4961 11.139 38.4961 12.194 37.8453 12.8449L34.5119 16.1782C34.1994 16.4908 33.7756 16.6665 33.3335 16.6665H25.0002V34.9998H26.6669C27.5873 34.9998 28.3335 35.746 28.3335 36.6665C28.3335 37.587 27.5873 38.3332 26.6669 38.3332H13.3335C12.4131 38.3332 11.6669 37.587 11.6669 36.6665C11.6669 35.746 12.4131 34.9998 13.3335 34.9998H15.0002V16.6665H6.66687C6.28004 16.6665 5.90715 16.532 5.61055 16.2889L5.48848 16.1782L2.15515 12.8449C1.50427 12.194 1.50427 11.139 2.15515 10.4881L5.48848 7.15478L5.61055 7.04411C5.90715 6.80105 6.28004 6.6665 6.66687 6.6665H15.0002C15.0002 5.34042 15.5274 4.06903 16.465 3.13135C17.4027 2.19367 18.6741 1.6665 20.0002 1.6665L20.495 1.69092C21.6394 1.80468 22.715 2.31102 23.5354 3.13135C24.473 4.06903 25.0002 5.34042 25.0002 6.6665H33.3335Z" fill="#0F0005"/>
</svg>
