<svg width="16" height="16" viewBox="0 0 16 16" fill="none" xmlns="http://www.w3.org/2000/svg">
<g clip-path="url(#clip0_1007_3506)">
<path d="M5.25785 1.33301C1.61852 1.33301 1.33337 1.61782 1.33337 5.25749V10.7419C1.33337 14.3812 1.61852 14.6663 5.25785 14.6663H10.7422C14.3816 14.6663 14.6667 14.3815 14.6667 10.7419V5.25749C14.6667 1.61782 14.3819 1.33301 10.7422 1.33301H5.25785ZM4.38936 2.66634H11.6107C13.2084 2.66634 13.3334 2.79133 13.3334 4.389V11.6104C13.3334 13.208 13.2081 13.333 11.6107 13.333H10.2058V9.34603H11.7845L12.0332 7.57194H10.2058C10.2058 7.57194 10.2031 6.53276 10.2058 6.27376C10.2111 5.76676 10.6347 5.51033 10.9987 5.514C11.3627 5.518 12.1166 5.5153 12.1166 5.5153V3.87988C12.1166 3.87988 11.464 3.79509 10.7793 3.78809C10.204 3.78209 9.5687 3.93809 9.05603 4.45475C8.53436 4.98009 8.4521 5.76274 8.4421 6.71908C8.4391 6.99541 8.4421 7.57129 8.4421 7.57129H6.89718V9.34538H8.4421V13.333H4.38936C2.7917 13.333 2.66671 13.2077 2.66671 11.6104V4.389C2.66671 2.79133 2.7917 2.66634 4.38936 2.66634Z" fill="#F7F5F6"/>
</g>
<defs>
<clipPath id="clip0_1007_3506">
<rect width="16" height="16" fill="white"/>
</clipPath>
</defs>
</svg>
