<svg width="34" height="34" viewBox="0 0 34 34" fill="none" xmlns="http://www.w3.org/2000/svg">
<path fill-rule="evenodd" clip-rule="evenodd" d="M25.333 7.33342V5.66675C25.333 2.90532 23.0944 0.666748 20.333 0.666748H13.6663C10.9049 0.666748 8.66634 2.90532 8.66634 5.66675V7.33342H3.66634C1.82539 7.33342 0.333008 8.8258 0.333008 10.6668V30.6668C0.333008 32.5077 1.82539 34.0001 3.66634 34.0001H30.333C32.174 34.0001 33.6663 32.5077 33.6663 30.6668V10.6668C33.6663 8.8258 32.174 7.33342 30.333 7.33342H25.333ZM21.9997 5.66675C21.9997 4.74627 21.2535 4.00008 20.333 4.00008H13.6663C12.7459 4.00008 11.9997 4.74627 11.9997 5.66675V7.33342H21.9997V5.66675ZM28.736 18.5756L30.333 17.9767V30.6668H3.66634V17.9768L5.2633 18.5756C6.01182 18.8563 6.80471 19.0001 7.60413 19.0001H8.66634V20.6668C8.66634 21.5872 9.41254 22.3334 10.333 22.3334C11.2535 22.3334 11.9997 21.5872 11.9997 20.6668V19.0001H21.9997V20.6668C21.9997 21.5872 22.7459 22.3334 23.6663 22.3334C24.5868 22.3334 25.333 21.5872 25.333 20.6668V19.0001H26.3952C27.1946 19.0001 27.9874 18.8563 28.736 18.5756ZM3.66634 14.4168V10.6668H30.333V14.4167L27.5656 15.4545C27.1913 15.5949 26.7949 15.6668 26.3952 15.6668H7.60413C7.20442 15.6668 6.80797 15.5949 6.43371 15.4545L3.66634 14.4168Z" fill="#0F0005"/>
</svg>
