<svg width="40" height="40" viewBox="0 0 40 40" fill="none" xmlns="http://www.w3.org/2000/svg">
<path fill-rule="evenodd" clip-rule="evenodd" d="M18.333 2.6292L4.50929 10.6103C3.78141 11.0306 3.33301 11.8072 3.33301 12.6477C3.33301 13.947 4.38629 15.0003 5.68557 15.0003H34.3138C35.613 15.0003 36.6663 13.947 36.6663 12.6477C36.6663 11.8072 36.218 11.0306 35.49 10.6103L21.6663 2.6292C20.635 2.03375 19.3643 2.03375 18.333 2.6292ZM19.9997 5.51595L9.34584 11.667H30.6535L19.9997 5.51595Z" fill="#0F0005"/>
<path d="M19.9997 18.3337C20.9202 18.3337 21.6663 19.0799 21.6663 20.0004V28.3337C21.6663 29.2541 20.9202 30.0004 19.9997 30.0004C19.0792 30.0004 18.333 29.2541 18.333 28.3337V20.0004C18.333 19.0799 19.0792 18.3337 19.9997 18.3337Z" fill="#0F0005"/>
<path d="M34.9997 36.6671C35.9202 36.6671 36.6663 35.9207 36.6663 35.0004C36.6663 34.0799 35.9202 33.3337 34.9997 33.3337H4.99967C4.07921 33.3337 3.33301 34.0799 3.33301 35.0004C3.33301 35.9207 4.07921 36.6671 4.99967 36.6671H34.9997Z" fill="#0F0005"/>
<path d="M29.1663 18.3337C30.0868 18.3337 30.833 19.0799 30.833 20.0004V28.3337C30.833 29.2541 30.0868 30.0004 29.1663 30.0004C28.2458 30.0004 27.4997 29.2541 27.4997 28.3337V20.0004C27.4997 19.0799 28.2458 18.3337 29.1663 18.3337Z" fill="#0F0005"/>
<path d="M10.833 18.3337C11.7535 18.3337 12.4997 19.0799 12.4997 20.0004V28.3337C12.4997 29.2541 11.7535 30.0004 10.833 30.0004C9.91254 30.0004 9.16634 29.2541 9.16634 28.3337V20.0004C9.16634 19.0799 9.91254 18.3337 10.833 18.3337Z" fill="#0F0005"/>
</svg>
