<svg width="40" height="40" viewBox="0 0 40 40" fill="none" xmlns="http://www.w3.org/2000/svg">
<path d="M21.667 16.6667V8.33333H18.3337V16.6667C18.3337 17.5871 17.5875 18.3333 16.667 18.3333C15.7465 18.3333 15.0003 17.5871 15.0003 16.6667V11.8343C13.4112 12.1587 11.9391 12.9441 10.7751 14.1081C9.21226 15.6709 8.33366 17.7899 8.33366 20V25C8.33366 25.9205 7.58747 26.6667 6.66699 26.6667C5.74652 26.6667 5.00033 25.9205 5.00033 25V20C5.00033 16.9058 6.22874 13.9376 8.41667 11.7497C10.2079 9.95848 12.5224 8.81143 15.0003 8.45378V8.33333C15.0003 7.44928 15.3518 6.60168 15.9769 5.97656C16.602 5.35144 17.4496 5 18.3337 5H21.667C22.551 5 23.3986 5.35144 24.0238 5.97656C24.6489 6.60168 25.0003 7.44928 25.0003 8.33333V8.45378C27.4783 8.81143 29.7928 9.95848 31.584 11.7497C33.7719 13.9376 35.0003 16.9058 35.0003 20V25C35.0003 25.9205 34.2541 26.6667 33.3337 26.6667C32.4132 26.6667 31.667 25.9205 31.667 25V20C31.667 17.7899 30.7884 15.6709 29.2256 14.1081C28.0616 12.9441 26.5894 12.1587 25.0003 11.8343V16.6667C25.0003 17.5871 24.2541 18.3333 23.3337 18.3333C22.4132 18.3333 21.667 17.5871 21.667 16.6667Z" fill="#0F0005"/>
<path d="M5.00033 26.6667V30H35.0003V26.6667H5.00033ZM38.3337 30C38.3337 31.8409 36.8413 33.3333 35.0003 33.3333H5.00033C3.15938 33.3333 1.66699 31.8409 1.66699 30V26.6667C1.66699 24.8257 3.15938 23.3333 5.00033 23.3333H35.0003C36.8413 23.3333 38.3337 24.8257 38.3337 26.6667V30Z" fill="#0F0005"/>
</svg>
