<svg width="16" height="16" viewBox="0 0 16 16" fill="none" xmlns="http://www.w3.org/2000/svg">
<path d="M7.94015 1.33301C1.81314 1.33301 1.33337 1.81278 1.33337 7.93978V8.05957C1.33337 14.1866 1.81314 14.6663 7.94015 14.6663H8.05994C14.1869 14.6663 14.6667 14.1866 14.6667 8.05957V7.99967C14.6667 1.81701 14.1827 1.33301 8.00004 1.33301H7.94015ZM6.66671 2.66634H9.33337C13.043 2.66634 13.3334 2.95667 13.3334 6.66634V9.33301C13.3334 13.0427 13.043 13.333 9.33337 13.333H6.66671C2.95704 13.333 2.66671 13.0427 2.66671 9.33301V6.66634C2.66671 2.95667 2.95704 2.66634 6.66671 2.66634ZM11.3314 3.99967C10.9631 4.00067 10.6657 4.29996 10.6667 4.66829C10.6677 5.03663 10.967 5.33401 11.3353 5.33301C11.7037 5.33201 12.001 5.03272 12 4.66439C11.999 4.29605 11.6998 3.99867 11.3314 3.99967ZM7.99223 4.66634C6.15156 4.67067 4.66237 6.16682 4.66671 8.00749C4.67104 9.84815 6.16719 11.3373 8.00785 11.333C9.84852 11.3287 11.3377 9.83253 11.3334 7.99186C11.329 6.1512 9.8329 4.66201 7.99223 4.66634ZM7.99548 5.99967C9.09982 5.99701 9.99737 6.89078 10 7.99512C10.0024 9.09945 9.10893 9.99701 8.0046 9.99967C6.90026 10.0023 6.00271 9.1089 6.00004 8.00423C5.99737 6.8999 6.89115 6.00234 7.99548 5.99967Z" fill="#F7F5F6"/>
</svg>
