<svg width="40" height="40" viewBox="0 0 40 40" fill="none" xmlns="http://www.w3.org/2000/svg">
<path d="M6.5625 3.4375L5.85875 4.10125L4.10125 5.85875L3.4375 6.5625L3.945 7.3825L6.5625 11.7575L6.91375 12.3825H10.5875L15.5875 17.3438C11.12 21.8312 5.43625 27.5338 5.23625 27.735C3.2775 29.6925 3.27375 32.9 5.27375 34.7663C7.2275 36.6937 10.4113 36.7438 12.2675 34.7663L12.305 34.7262L20 26.9925L27.735 34.765L27.8513 34.8438C29.8138 36.6937 32.935 36.7188 34.7663 34.765V34.7275H34.8038C36.7188 32.7687 36.7388 29.585 34.7663 27.7337L34.7263 27.6962L28.2038 21.2113C32.5925 20.8013 36.03 17.095 36.0938 12.6175H36.1325C36.1375 12.5925 36.1325 12.5638 36.1325 12.5387V12.5C36.255 11.055 35.9425 9.6725 35.195 8.47625L34.3375 7.15L28.5163 12.97L26.7588 11.1337L32.6963 5.19625L30.9775 4.49375C29.8815 4.01041 28.6979 3.75727 27.5 3.75C22.695 3.75 18.75 7.695 18.75 12.5C18.75 13.0225 18.8625 13.4762 18.945 13.945C18.3988 14.4925 17.9888 14.9412 17.3438 15.5863L12.3825 10.625V6.91375L11.7575 6.5625L7.3825 3.945L6.5625 3.4375ZM27.5 6.25C27.675 6.25 27.7975 6.3525 27.9688 6.3675L23.2425 11.0938L24.1013 11.9925L27.6175 15.625L28.4763 16.5238L33.4375 11.5625C33.4625 11.85 33.6675 12.06 33.6325 12.3825V12.5C33.6325 15.9425 30.825 18.75 27.3825 18.75C26.9238 18.75 26.3675 18.6425 25.7425 18.515L25.0775 18.3988L24.6088 18.8675L10.5087 33.0075H10.4688V33.0475C9.58125 34.0187 8.0275 34.0425 6.9925 33.0075V32.9688H6.9525C5.98125 32.0812 5.9575 30.5275 6.9925 29.4925C7.46625 29.0175 16.64 19.765 21.1325 15.2738L21.6413 14.7662L21.445 14.0625C21.3254 13.55 21.26 13.0262 21.25 12.5C21.25 9.0575 24.0575 6.25 27.5 6.25ZM6.9525 6.5625L9.8825 8.36V9.61L9.61 9.8825H8.36L6.5625 6.95375L6.9525 6.5625ZM25.2338 21.7575L33.0088 29.4925V29.5312H33.0463C34.0188 30.4188 34.0425 31.9725 33.0088 33.0075H32.9688V33.0475C32.0813 34.0187 30.5275 34.0425 29.4925 33.0075L21.7575 25.235L25.2338 21.7575Z" fill="#0F0005"/>
</svg>
