<svg width="40" height="40" viewBox="0 0 40 40" fill="none" xmlns="http://www.w3.org/2000/svg">
<path fill-rule="evenodd" clip-rule="evenodd" d="M3.33333 9.99984C3.33333 8.15889 4.82572 6.6665 6.66667 6.6665H33.3333C35.1743 6.6665 36.6667 8.15889 36.6667 9.99984V28.3332C36.6667 28.9403 36.5043 29.5095 36.2207 29.9998H38.3333C39.2538 29.9998 40 30.746 40 31.6665C40 32.587 39.2538 33.3332 38.3333 33.3332H1.66667C0.746193 33.3332 0 32.587 0 31.6665C0 30.746 0.746192 29.9998 1.66667 29.9998H3.77927C3.49565 29.5095 3.33333 28.9403 3.33333 28.3332V9.99984ZM6.66667 28.3332V9.99984H33.3333V28.3332H6.66667Z" fill="#0F0005"/>
</svg>
