<svg width="34" height="36" viewBox="0 0 34 36" fill="none" xmlns="http://www.w3.org/2000/svg">
<path fill-rule="evenodd" clip-rule="evenodd" d="M15.333 1.1292L1.50929 9.11034C0.781408 9.53057 0.333008 10.3072 0.333008 11.1477C0.333008 12.447 1.38629 13.5003 2.68557 13.5003H31.3138C32.613 13.5003 33.6663 12.447 33.6663 11.1477C33.6663 10.3072 33.218 9.53059 32.49 9.11034L18.6663 1.1292C17.635 0.533755 16.3643 0.533755 15.333 1.1292ZM16.9997 4.01595L6.34584 10.167H27.6535L16.9997 4.01595Z" fill="#FF6700"/>
<path d="M16.9997 16.8337C17.9202 16.8337 18.6663 17.5799 18.6663 18.5004V26.8337C18.6663 27.7541 17.9202 28.5004 16.9997 28.5004C16.0792 28.5004 15.333 27.7541 15.333 26.8337V18.5004C15.333 17.5799 16.0792 16.8337 16.9997 16.8337Z" fill="#FF6700"/>
<path d="M31.9997 35.1671C32.9202 35.1671 33.6663 34.4207 33.6663 33.5004C33.6663 32.5799 32.9202 31.8337 31.9997 31.8337H1.99967C1.07921 31.8337 0.333008 32.5799 0.333008 33.5004C0.333008 34.4207 1.07921 35.1671 1.99967 35.1671H31.9997Z" fill="#FF6700"/>
<path d="M26.1663 16.8337C27.0868 16.8337 27.833 17.5799 27.833 18.5004V26.8337C27.833 27.7541 27.0868 28.5004 26.1663 28.5004C25.2458 28.5004 24.4997 27.7541 24.4997 26.8337V18.5004C24.4997 17.5799 25.2458 16.8337 26.1663 16.8337Z" fill="#FF6700"/>
<path d="M7.83301 16.8337C8.75349 16.8337 9.49967 17.5799 9.49967 18.5004V26.8337C9.49967 27.7541 8.75349 28.5004 7.83301 28.5004C6.91254 28.5004 6.16634 27.7541 6.16634 26.8337V18.5004C6.16634 17.5799 6.91254 16.8337 7.83301 16.8337Z" fill="#FF6700"/>
</svg>
