<svg width="16" height="16" viewBox="0 0 16 16" fill="none" xmlns="http://www.w3.org/2000/svg">
<g clip-path="url(#clip0_1007_3442)">
<path d="M5.25785 1.33301C1.61852 1.33301 1.33337 1.61782 1.33337 5.25749V10.7419C1.33337 14.3812 1.61852 14.6663 5.25785 14.6663H10.7422C14.3816 14.6663 14.6667 14.3815 14.6667 10.7419V5.25749C14.6667 1.61782 14.3819 1.33301 10.7422 1.33301H5.25785ZM4.38936 2.66634H11.6107C13.2084 2.66634 13.3334 2.79133 13.3334 4.389V11.6104C13.3334 13.208 13.2081 13.333 11.6107 13.333H4.38936C2.7917 13.333 2.66671 13.2077 2.66671 11.6104V4.389C2.66671 2.79133 2.7917 2.66634 4.38936 2.66634ZM4.83403 3.50098C4.29103 3.50098 3.85095 3.94107 3.85095 4.4834C3.85095 5.02573 4.29069 5.46647 4.83403 5.46647C5.37569 5.46647 5.8158 5.02607 5.8158 4.4834C5.8158 3.94173 5.37569 3.50098 4.83403 3.50098ZM9.97791 6.1071C9.15791 6.1071 8.60785 6.55707 8.38285 6.9834H8.35942V6.24251H6.74288V11.6663H8.42712V8.98275C8.42712 8.27508 8.56249 7.59017 9.43949 7.59017C10.3042 7.59017 10.3151 8.39997 10.3151 9.02897V11.6663H12V8.69108C12 7.23041 11.6849 6.1071 9.97791 6.1071ZM3.99093 6.24251V11.6663H5.67647V6.24251H3.99093Z" fill="#F7F5F6"/>
</g>
<defs>
<clipPath id="clip0_1007_3442">
<rect width="16" height="16" fill="white"/>
</clipPath>
</defs>
</svg>
