<svg width="52" height="42" viewBox="0 0 52 42" fill="none" xmlns="http://www.w3.org/2000/svg">
<path fill-rule="evenodd" clip-rule="evenodd" d="M17.3054 37.4624C17.961 37.3775 18.6272 37.4326 19.2598 37.6241L32.7403 41.7091C33.3729 41.9009 34.039 41.956 34.6945 41.8708L47.6011 40.1948C49.9265 39.8926 51.6667 37.9118 51.6667 35.5668V7.64529C51.6667 4.82933 49.1915 2.65482 46.3989 3.01749L34.6945 4.53754C34.039 4.62269 33.3729 4.56757 32.7403 4.37584L19.2598 0.290899C18.6272 0.0991692 17.961 0.0440561 17.3054 0.129199L4.39898 1.80537C2.07353 2.10738 0.333332 4.08817 0.333332 6.43317V34.3547C0.333332 37.1708 2.80849 39.3452 5.60102 38.9826L17.3054 37.4624ZM20.6333 5.58334L31.3667 8.83585V36.4166L20.6333 33.1642V5.58334ZM15.9667 5.00892L5 6.43317V34.3547L15.9667 32.9306V5.00892ZM36.0333 36.9911L47 35.5668V7.64529L36.0333 9.06953V36.9911Z" fill="#0F0005"/>
</svg>
