<svg width="34" height="34" viewBox="0 0 34 34" fill="none" xmlns="http://www.w3.org/2000/svg">
<path fill-rule="evenodd" clip-rule="evenodd" d="M16.9997 33.6667C26.2043 33.6667 33.6663 26.2047 33.6663 17C33.6663 7.79525 26.2043 0.333328 16.9997 0.333328C7.79492 0.333328 0.333008 7.79525 0.333008 17C0.333008 26.2047 7.79492 33.6667 16.9997 33.6667ZM30.333 17C30.333 18.151 30.1872 19.268 29.913 20.3333H24.3497C24.448 19.2563 24.4997 18.1415 24.4997 17C24.4997 15.8585 24.448 14.7437 24.3497 13.6667H29.913C30.1872 14.732 30.333 15.849 30.333 17ZM23.8757 10.3333H28.5492C27.0763 7.78718 24.7857 5.77329 22.0365 4.65081C22.817 6.22396 23.4478 8.15755 23.8757 10.3333ZM11.9629 4.65081C9.21362 5.77329 6.92298 7.78718 5.45011 10.3333H10.1237C10.5515 8.15755 11.1823 6.22396 11.9629 4.65081ZM9.64971 13.6667H4.08641C3.81219 14.732 3.66634 15.849 3.66634 17C3.66634 18.151 3.81219 19.268 4.08641 20.3333H9.64971C9.55132 19.2563 9.49967 18.1415 9.49967 17C9.49967 15.8585 9.55132 14.7437 9.64971 13.6667ZM10.1237 23.6667H5.45011C6.92298 26.2128 9.21362 28.2267 11.9629 29.3492C11.1823 27.776 10.5515 25.8425 10.1237 23.6667ZM22.0365 29.3492C24.7857 28.2267 27.0763 26.2128 28.5492 23.6667H23.8757C23.4478 25.8425 22.817 27.776 22.0365 29.3492ZM21.1663 17C21.1663 18.1572 21.1083 19.2725 21.001 20.3333H12.9983C12.8911 19.2725 12.833 18.1572 12.833 17C12.833 15.8428 12.8911 14.7275 12.9983 13.6667H21.001C21.1083 14.7275 21.1663 15.8428 21.1663 17ZM20.47 10.3333C20.1508 8.90278 19.7377 7.63691 19.2632 6.58276C18.7003 5.33188 18.1165 4.52354 17.636 4.07193C17.4048 3.85454 17.2318 3.75196 17.1313 3.70628C17.0513 3.66986 17.013 3.66686 17.0025 3.66666H16.9968C16.9863 3.66686 16.948 3.66986 16.868 3.70628C16.7675 3.75196 16.5945 3.85454 16.3633 4.07193C15.8828 4.52354 15.299 5.33188 14.7362 6.58276C14.2617 7.63691 13.8485 8.90278 13.5293 10.3333H20.47ZM13.5293 23.6667C13.8485 25.0972 14.2617 26.3632 14.7362 27.4172C15.299 28.6682 15.8828 29.4765 16.3633 29.928C16.5945 30.1455 16.7675 30.248 16.868 30.2937C16.9478 30.33 16.9862 30.3332 16.9968 30.3333H17.0025C17.0132 30.3332 17.0515 30.33 17.1313 30.2937C17.2318 30.248 17.4048 30.1455 17.636 29.928C18.1165 29.4765 18.7003 28.6682 19.2632 27.4172C19.7377 26.3632 20.1508 25.0972 20.47 23.6667H13.5293Z" fill="#0F0005"/>
</svg>
