<svg width="48" height="48" viewBox="0 0 48 48" fill="none" xmlns="http://www.w3.org/2000/svg">
  <!-- Winding path -->
  <path d="M8 40C8 32 12 28 20 28C24 28 26 30 28 32C30 34 32 36 36 36C40 36 42 34 42 30C42 26 40 24 36 24C32 24 30 26 28 28C26 30 24 32 20 32C16 32 14 30 12 28C10 26 8 24 8 20C8 16 10 14 14 14C18 14 20 16 22 18C24 20 26 22 30 22C34 22 36 20 38 18C40 16 42 14 42 10C42 6 40 4 36 4C32 4 30 6 28 8C26 10 24 12 20 12C16 12 14 10 12 8C10 6 8 4 8 8" fill="none" stroke="#000" stroke-width="2"/>
  
  <!-- Start point -->
  <circle cx="8" cy="40" r="3" fill="#000"/>
  
  <!-- End point -->
  <circle cx="42" cy="8" r="3" fill="none" stroke="#000" stroke-width="2"/>
  
  <!-- Waypoints -->
  <circle cx="20" cy="28" r="2" fill="none" stroke="#000" stroke-width="1"/>
  <circle cx="36" cy="24" r="2" fill="none" stroke="#000" stroke-width="1"/>
  <circle cx="30" cy="22" r="2" fill="none" stroke="#000" stroke-width="1"/>
  <circle cx="20" cy="12" r="2" fill="none" stroke="#000" stroke-width="1"/>
</svg>
