<svg width="48" height="48" viewBox="0 0 48 48" fill="none" xmlns="http://www.w3.org/2000/svg">
  <!-- Head -->
  <circle cx="24" cy="16" r="8" fill="none" stroke="#000" stroke-width="2"/>
  
  <!-- Body -->
  <path d="M12 32C12 26 18 22 24 22C30 22 36 26 36 32" fill="none" stroke="#000" stroke-width="2"/>
  
  <!-- Arms -->
  <line x1="16" y1="26" x2="8" y2="32" stroke="#000" stroke-width="2"/>
  <line x1="32" y1="26" x2="40" y2="32" stroke="#000" stroke-width="2"/>
  
  <!-- Legs -->
  <line x1="20" y1="32" x2="16" y2="40" stroke="#000" stroke-width="2"/>
  <line x1="28" y1="32" x2="32" y2="40" stroke="#000" stroke-width="2"/>
  
  <!-- Heart -->
  <path d="M24 8C22 6 19 6 17 8C15 10 15 13 17 15L24 22L31 15C33 13 33 10 31 8C29 6 26 6 24 8Z" fill="none" stroke="#000" stroke-width="1"/>
</svg>
