<svg width="34" height="35" viewBox="0 0 34 35" fill="none" xmlns="http://www.w3.org/2000/svg">
<path d="M28.0722 0.906567C29.5307 0.457877 31.1529 0.337142 32.4831 0.890291L32.7451 1.00911L32.9746 1.14908C33.1917 1.30578 33.3696 1.51269 33.4905 1.75455C34.178 3.12954 34.0716 4.87184 33.5931 6.4274C33.0956 8.0441 32.1182 9.73817 30.678 11.1784L25.4892 16.3656L28.2936 29.1422C28.2958 29.1524 28.2981 29.163 28.3001 29.1732C28.6161 30.7533 27.9102 32.0261 26.8336 32.8337C26.7168 32.9212 26.5883 32.9926 26.4528 33.0469L25.6194 33.3805C24.2339 33.9348 22.5408 33.7211 21.5 32.334C21.48 32.3074 21.4613 32.2787 21.443 32.251L16.5309 24.8144L13.6663 26.7253V30.8333C13.6663 31.2754 13.4906 31.6992 13.178 32.0117L11.5114 33.6784C11.1583 34.0315 10.6655 34.2077 10.1686 34.1585C9.67177 34.1093 9.22321 33.8399 8.94627 33.4245L5.79685 28.7012L1.07517 25.5534C0.659758 25.2764 0.390369 24.8279 0.341125 24.331C0.291923 23.8342 0.468194 23.3413 0.821268 22.9883L2.48793 21.3216L2.61 21.2109C2.9066 20.9679 3.2795 20.8333 3.66632 20.8333H7.77439L9.68357 17.9671L2.24868 13.0566C2.22092 13.0383 2.19228 13.0196 2.16567 12.9997C0.778496 11.9589 0.564888 10.2658 1.11912 8.8802C1.15207 8.79795 1.19235 8.71855 1.23793 8.64257L1.73761 7.80924C2.4045 6.58761 3.67208 5.98249 5.04327 6.15234L5.32648 6.19954L5.3574 6.20605L18.1325 9.00878L23.3213 3.82161C24.7615 2.3814 26.4555 1.40401 28.0722 0.906567ZM30.6373 3.86067C30.2491 3.83953 29.716 3.88912 29.0521 4.09342C27.9605 4.42934 26.7377 5.1187 25.678 6.17838L19.8447 12.0117C19.4429 12.4136 18.8633 12.5828 18.3082 12.4609L4.67218 9.46777L4.62823 9.46288C4.61715 9.48322 4.6076 9.50487 4.59568 9.52473L4.19204 10.1969C4.17224 10.2651 4.16662 10.3083 4.16762 10.3304L12.9176 16.11C13.2875 16.3543 13.5459 16.7351 13.6338 17.1696C13.7216 17.604 13.6322 18.0557 13.3864 18.4245L10.053 23.4245C9.74393 23.8881 9.22357 24.1667 8.66632 24.1667H5.00421L7.92413 26.1133L8.05597 26.2109C8.18329 26.3153 8.29472 26.438 8.38637 26.5755L10.333 29.4954V25.8333C10.333 25.2761 10.6115 24.7557 11.0752 24.4466L16.0752 21.1133L16.2168 21.0286C16.5563 20.848 16.9498 20.789 17.3301 20.8659C17.7645 20.9538 18.1453 21.2121 18.3896 21.582L24.1676 30.332C24.1961 30.3336 24.2665 30.3322 24.3808 30.2865L24.9521 30.057C25.0082 30 25.0308 29.9675 25.0351 29.9577C25.0382 29.9507 25.0405 29.944 25.0416 29.9333C25.0428 29.9212 25.0438 29.8874 25.0319 29.8275V29.8258L22.0387 16.1914C21.9169 15.6363 22.0861 15.0568 22.4879 14.6549L28.3213 8.82161C29.3809 7.76193 30.0703 6.53913 30.4062 5.44758C30.6108 4.78264 30.6587 4.24909 30.6373 3.86067Z" fill="#FF6700"/>
</svg>
