<svg width="34" height="34" viewBox="0 0 34 34" fill="none" xmlns="http://www.w3.org/2000/svg">
<path fill-rule="evenodd" clip-rule="evenodd" d="M15.333 3.76974C8.75582 4.58991 3.66634 10.2006 3.66634 16.9999C3.66634 24.3637 9.63588 30.3333 16.9997 30.3333C23.799 30.3333 29.4097 25.2438 30.2299 18.6666H16.9997C16.0792 18.6666 15.333 17.9204 15.333 16.9999V3.76974ZM18.6663 3.76974V15.3333H30.2299C29.4778 9.30206 24.6975 4.52182 18.6663 3.76974ZM0.333008 16.9999C0.333008 7.79517 7.79493 0.333252 16.9997 0.333252C26.2044 0.333252 33.6663 7.79517 33.6663 16.9999C33.6663 26.2047 26.2044 33.6666 16.9997 33.6666C7.79493 33.6666 0.333008 26.2047 0.333008 16.9999Z" fill="#0F0005"/>
</svg>
