<svg width="38" height="38" viewBox="0 0 38 38" fill="none" xmlns="http://www.w3.org/2000/svg">
<path fill-rule="evenodd" clip-rule="evenodd" d="M23.9997 12.3334C23.9997 15.0948 21.7612 17.3334 18.9997 17.3334C16.2383 17.3334 13.9997 15.0948 13.9997 12.3334C13.9997 9.572 16.2383 7.33341 18.9997 7.33341C21.7612 7.33341 23.9997 9.572 23.9997 12.3334ZM20.6663 12.3334C20.6663 13.2539 19.9202 14.0001 18.9997 14.0001C18.0792 14.0001 17.333 13.2539 17.333 12.3334C17.333 11.4129 18.0792 10.6667 18.9997 10.6667C19.9202 10.6667 20.6663 11.4129 20.6663 12.3334Z" fill="#0F0005"/>
<path fill-rule="evenodd" clip-rule="evenodd" d="M21.068 28.7497C24.4197 25.4632 30.6663 18.5091 30.6663 12.3334C30.6663 5.85008 25.443 0.666748 18.9997 0.666748C12.5564 0.666748 7.33303 5.85008 7.33303 12.3334C7.33303 18.5091 13.5797 25.4632 16.9313 28.7497C18.0957 29.8916 19.9037 29.8916 21.068 28.7497ZM24.365 19.7544C26.2325 16.9999 27.333 14.4053 27.333 12.3334C27.333 7.69848 23.6095 4.00008 18.9997 4.00008C14.3899 4.00008 10.6664 7.69848 10.6664 12.3334C10.6664 14.4053 11.7668 16.9999 13.6343 19.7544C15.3429 22.2744 17.4282 24.5446 18.9997 26.1076C20.5712 24.5446 22.6565 22.2744 24.365 19.7544Z" fill="#0F0005"/>
<path d="M8.8136 24.5399C8.0387 23.7649 6.73965 23.9361 6.19172 24.8851L1.16972 33.5834C0.207473 35.2501 1.41028 37.3334 3.33478 37.3334H34.6695C36.594 37.3334 37.7968 35.2501 36.8347 33.5834L31.8108 24.8819C31.2628 23.9329 29.9638 23.7619 29.1888 24.5368C28.6555 25.0701 28.5468 25.8953 28.924 26.5486L33.2262 34.0001H4.77817L9.07847 26.5518C9.45564 25.8984 9.347 25.0733 8.8136 24.5399Z" fill="#0F0005"/>
</svg>
