<svg width="40" height="40" viewBox="0 0 40 40" fill="none" xmlns="http://www.w3.org/2000/svg">
<path d="M18.336 25.833C18.336 26.7535 19.0822 27.4997 20.0027 27.4997C20.923 27.4997 21.6694 26.7535 21.6694 25.833V21.6663H25.836C26.7564 21.6663 27.5027 20.9202 27.5027 19.9997C27.5027 19.0792 26.7564 18.333 25.836 18.333H21.6694V14.1663C21.6694 13.2459 20.923 12.4997 20.0027 12.4997C19.0822 12.4997 18.336 13.2459 18.336 14.1663V18.333H14.1693C13.2488 18.333 12.5026 19.0792 12.5026 19.9997C12.5026 20.9202 13.2488 21.6663 14.1693 21.6663H18.336V25.833Z" fill="#0F0005"/>
<path fill-rule="evenodd" clip-rule="evenodd" d="M20.0027 36.6663C29.2074 36.6663 36.6694 29.2043 36.6694 19.9997C36.6694 10.7949 29.2074 3.33301 20.0027 3.33301C10.7979 3.33301 3.33594 10.7949 3.33594 19.9997C3.33594 29.2043 10.7979 36.6663 20.0027 36.6663ZM20.0027 33.333C27.3664 33.333 33.336 27.3635 33.336 19.9997C33.336 12.6359 27.3664 6.66634 20.0027 6.66634C12.6388 6.66634 6.66927 12.6359 6.66927 19.9997C6.66927 27.3635 12.6388 33.333 20.0027 33.333Z" fill="#0F0005"/>
</svg>
