<svg width="40" height="40" viewBox="0 0 40 40" fill="none" xmlns="http://www.w3.org/2000/svg">
<path d="M12.6054 21.5146C12.6312 22.6092 13.056 23.6533 13.794 24.4294C14.5559 25.2306 15.5892 25.6807 16.6667 25.6807C17.7441 25.6807 18.7774 25.2306 19.5393 24.4294C20.2773 23.6533 20.7021 22.6092 20.7279 21.5146L20.7292 21.4085L20.7292 15.9859L12.6042 15.9859V21.4084L12.6054 21.5146ZM11.6667 15.7668C11.6667 15.3566 11.973 15.0215 12.3583 15.001L12.3958 15H20.9375C21.3276 15 21.6462 15.3222 21.6658 15.7273L21.6667 15.7668L21.6667 21.4085C21.6667 22.803 21.1399 24.1405 20.2022 25.1266C19.2645 26.1127 17.9927 26.6667 16.6667 26.6667C15.3406 26.6667 14.0688 26.1127 13.1311 25.1266C12.1934 24.1405 11.6667 22.803 11.6667 21.4084V15.7668Z" fill="#0F0005"/>
<path d="M16.0499 21.5649C15.8674 21.38 15.765 21.1291 15.765 20.8675V19.9086C15.765 19.7743 15.8738 19.6654 16.0081 19.6654H17.4671C17.6014 19.6654 17.7103 19.7743 17.7103 19.9086V20.8675C17.7103 21.1291 17.6078 21.38 17.4254 21.5649C17.243 21.7499 16.9956 21.8538 16.7376 21.8538C16.4797 21.8538 16.2323 21.7499 16.0499 21.5649Z" fill="#0F0005"/>
<path d="M16.0499 18.6776C15.8674 18.4926 15.765 18.2417 15.765 17.9801V17.0212C15.765 16.8869 15.8738 16.778 16.0081 16.778H17.4671C17.6014 16.778 17.7103 16.8869 17.7103 17.0212V17.9801C17.7103 18.2417 17.6078 18.4926 17.4254 18.6776C17.243 18.8626 16.9956 18.9665 16.7376 18.9665C16.4797 18.9665 16.2323 18.8626 16.0499 18.6776Z" fill="#0F0005"/>
<path d="M16.0499 24.3921C15.8674 24.2071 15.765 23.9562 15.765 23.6946V22.7357C15.765 22.6014 15.8738 22.4925 16.0081 22.4925H17.4671C17.6014 22.4925 17.7103 22.6014 17.7103 22.7357V23.6946C17.7103 23.9562 17.6078 24.2071 17.4254 24.3921C17.243 24.5771 16.9956 24.681 16.7376 24.681C16.4797 24.681 16.2323 24.5771 16.0499 24.3921Z" fill="#0F0005"/>
<path d="M18.6032 21.5649C18.4208 21.38 18.3183 21.1291 18.3183 20.8675V19.9086C18.3183 19.7743 18.4271 19.6654 18.5614 19.6654H20.0204C20.1547 19.6654 20.2636 19.7743 20.2636 19.9086V20.8675C20.2636 21.1291 20.1611 21.38 19.9787 21.5649C19.7963 21.7499 19.5489 21.8538 19.2909 21.8538C19.033 21.8538 18.7856 21.7499 18.6032 21.5649Z" fill="#0F0005"/>
<path d="M13.6182 21.5649C13.4358 21.38 13.3333 21.1291 13.3333 20.8675V19.9086C13.3333 19.7743 13.4422 19.6654 13.5765 19.6654H15.0355C15.1698 19.6654 15.2786 19.7743 15.2786 19.9086V20.8675C15.2786 21.1291 15.1761 21.38 14.9937 21.5649C14.8113 21.7499 14.5639 21.8538 14.306 21.8538C14.048 21.8538 13.8006 21.7499 13.6182 21.5649Z" fill="#0F0005"/>
<path d="M24.3327 20C24.3327 15.7658 20.9009 12.334 16.6667 12.334C12.4325 12.334 9.00065 15.7658 9.00065 20C9.00065 24.2342 12.4325 27.666 16.6667 27.666V30C11.1438 30 6.66667 25.5228 6.66667 20C6.66667 14.4772 11.1438 10 16.6667 10C22.1895 10 26.6667 14.4772 26.6667 20C26.6667 25.5228 22.1895 30 16.6667 30V27.666C20.9009 27.666 24.3327 24.2342 24.3327 20Z" fill="#0F0005"/>
<path d="M36.6667 20C36.6667 10.7953 29.2047 3.33333 20 3.33333C10.7953 3.33333 3.33333 10.7953 3.33333 20C3.33333 29.2047 10.7953 36.6667 20 36.6667V40C8.9543 40 0 31.0457 0 20C0 8.9543 8.9543 0 20 0C31.0457 0 40 8.9543 40 20C40 31.0457 31.0457 40 20 40V36.6667C29.2047 36.6667 36.6667 29.2047 36.6667 20Z" fill="#0F0005"/>
<path d="M18.3333 28.3333V38.3333H15V28.3333H18.3333Z" fill="#0F0005"/>
<path d="M18.3333 1.66667V11.6667H15V1.66667H18.3333Z" fill="#0F0005"/>
</svg>
