<svg width="54" height="70" viewBox="0 0 54 70" fill="none" xmlns="http://www.w3.org/2000/svg">
<path d="M40 30C40 31.841 38.5077 33.3333 36.6667 33.3333H16.6667C14.8257 33.3333 13.3333 31.841 13.3333 30C13.3333 28.1591 14.8257 26.6667 16.6667 26.6667H36.6667C38.5077 26.6667 40 28.1591 40 30Z" fill="#0F0005"/>
<path d="M33.3333 43.3333C33.3333 45.1743 31.841 46.6667 30 46.6667H16.6667C14.8257 46.6667 13.3333 45.1743 13.3333 43.3333C13.3333 41.4923 14.8257 40 16.6667 40H30C31.841 40 33.3333 41.4923 33.3333 43.3333Z" fill="#0F0005"/>
<path fill-rule="evenodd" clip-rule="evenodd" d="M20 0C16.3181 0 13.3333 2.98477 13.3333 6.66667H6.66667C2.98477 6.66667 0 9.65143 0 13.3333V63.3333C0 67.0153 2.98477 70 6.66667 70H46.6667C50.3487 70 53.3333 67.0153 53.3333 63.3333V13.3333C53.3333 9.65143 50.3487 6.66667 46.6667 6.66667H40C40 2.98477 37.0153 0 33.3333 0H20ZM40 13.3333C40 17.0152 37.0153 20 33.3333 20H20C16.3181 20 13.3333 17.0152 13.3333 13.3333H6.66667V63.3333H46.6667V13.3333H40ZM20 6.66667H33.3333V13.3333H20V6.66667Z" fill="#0F0005"/>
</svg>
