<svg width="40" height="40" viewBox="0 0 40 40" fill="none" xmlns="http://www.w3.org/2000/svg">
<path d="M22.5002 19.3098L25.9763 15.8335C26.6273 15.1826 27.6825 15.1826 28.3335 15.8335C28.9843 16.4844 28.9843 17.5397 28.3335 18.1905L23.6787 22.8453C23.366 23.1578 22.9422 23.3335 22.5 23.3335C22.058 23.3335 21.6342 23.1578 21.3215 22.8453L17.5002 19.0238L14.0238 22.5002C13.3729 23.151 12.3177 23.151 11.6668 22.5002C11.0159 21.8493 11.0159 20.794 11.6668 20.1432L16.3216 15.4883C16.6342 15.1758 17.0582 15.0002 17.5002 15.0002C17.9422 15.0002 18.3662 15.1758 18.6787 15.4883L22.5002 19.3098Z" fill="#0F0005"/>
<path fill-rule="evenodd" clip-rule="evenodd" d="M20.0002 3.3335C19.0797 3.3335 18.3335 4.0797 18.3335 5.00016V6.66683H6.66683C4.82588 6.66683 3.3335 8.15921 3.3335 10.0002V28.3335C3.3335 30.1745 4.82588 31.6668 6.66683 31.6668H10.8313L8.30388 36.0575C7.84466 36.8553 8.11911 37.8743 8.91686 38.3335C9.71461 38.7927 10.7336 38.5183 11.1928 37.7205L14.6774 31.6668H25.4063L28.891 37.7205C29.3502 38.5183 30.3692 38.7927 31.1668 38.3335C31.9647 37.8743 32.239 36.8553 31.7798 36.0575L29.2525 31.6668H33.3335C35.1745 31.6668 36.6668 30.1745 36.6668 28.3335V10.0002C36.6668 8.15921 35.1745 6.66683 33.3335 6.66683H21.6668V5.00016C21.6668 4.0797 20.9207 3.3335 20.0002 3.3335ZM6.66683 10.0002V28.3335H33.3335V10.0002H6.66683Z" fill="#0F0005"/>
</svg>
