<svg width="40" height="40" viewBox="0 0 40 40" fill="none" xmlns="http://www.w3.org/2000/svg">
<path fill-rule="evenodd" clip-rule="evenodd" d="M22.5 34.9998C22.5 35.7752 23.024 36.6665 23.7993 36.6665H30C31.841 36.6665 33.3333 35.1742 33.3333 33.3332V28.2742C33.6055 28.313 33.8837 28.3332 34.1667 28.3332C34.4497 28.3332 34.7278 28.313 35 28.2742C37.827 27.8697 40 25.4385 40 22.4998C40 19.5612 37.827 17.13 35 16.7255C34.7278 16.6867 34.4497 16.6665 34.1667 16.6665C33.8837 16.6665 33.6055 16.6867 33.3333 16.7255V11.6665C33.3333 9.82555 31.841 8.33317 30 8.33317H24.941C24.9798 8.061 25 7.78277 25 7.49984C25 7.2169 24.9798 6.93867 24.941 6.6665C24.5365 3.83959 22.1053 1.6665 19.1667 1.6665C16.2279 1.6665 13.7968 3.83959 13.3924 6.6665C13.3535 6.93867 13.3333 7.2169 13.3333 7.49984C13.3333 7.78277 13.3535 8.061 13.3924 8.33317H8.33333C6.49238 8.33317 5 9.82555 5 11.6665V17.8672C5 18.6425 5.89135 19.1665 6.66667 19.1665C7.27382 19.1665 7.84305 19.3288 8.33333 19.6125C9.32967 20.1888 10 21.266 10 22.4998C10 23.7337 9.32967 24.8108 8.33333 25.3872C7.84305 25.6708 7.27382 25.8332 6.66667 25.8332C5.89135 25.8332 5 26.3572 5 27.1325V33.3332C5 35.1742 6.49238 36.6665 8.33333 36.6665H14.534C15.3093 36.6665 15.8333 35.7752 15.8333 34.9998C15.8333 34.3927 15.9957 33.8235 16.2793 33.3332C16.8557 32.3368 17.9328 31.6665 19.1667 31.6665C20.4005 31.6665 21.4777 32.3368 22.054 33.3332C22.3377 33.8235 22.5 34.3927 22.5 34.9998ZM21.369 9.76384C21.2253 10.768 22.0045 11.6665 23.0188 11.6665H30V18.6477C30 19.662 30.8985 20.4412 31.9027 20.2975L33.8053 20.0253C33.9217 20.0087 34.0422 19.9998 34.1667 19.9998C35.5473 19.9998 36.6667 21.1192 36.6667 22.4998C36.6667 23.8805 35.5473 24.9998 34.1667 24.9998C34.0422 24.9998 33.9217 24.991 33.8053 24.9743L31.9027 24.7022C30.8985 24.5585 30 25.3377 30 26.352V33.3332H25.6233C24.8832 30.4578 22.273 28.3332 19.1667 28.3332C16.0603 28.3332 13.4501 30.4578 12.71 33.3332H8.33333V28.9565C11.2087 28.2163 13.3333 25.6062 13.3333 22.4998C13.3333 19.3935 11.2087 16.7833 8.33333 16.0432V11.6665H15.3144C16.3288 11.6665 17.108 10.768 16.9643 9.76384L16.6922 7.86117C16.6755 7.74487 16.6667 7.62437 16.6667 7.49984C16.6667 6.11912 17.786 4.99984 19.1667 4.99984C20.5473 4.99984 21.6667 6.11912 21.6667 7.49984C21.6667 7.62435 21.6578 7.74485 21.6412 7.86119L21.369 9.76384Z" fill="#0F0005"/>
</svg>
