<svg width="40" height="40" viewBox="0 0 40 40" fill="none" xmlns="http://www.w3.org/2000/svg">
<path d="M13.333 31.667C13.333 29.826 11.8406 28.3337 9.99967 28.3337C8.15873 28.3337 6.66634 29.826 6.66634 31.667C6.66634 33.5079 8.15873 35.0003 9.99967 35.0003C11.8406 35.0003 13.333 33.5079 13.333 31.667ZM16.6663 31.667C16.6663 35.3489 13.6816 38.3337 9.99967 38.3337C6.31778 38.3337 3.33301 35.3489 3.33301 31.667C3.33301 27.9851 6.31778 25.0003 9.99967 25.0003C13.6816 25.0003 16.6663 27.9851 16.6663 31.667Z" fill="#0F0005"/>
<path d="M33.333 25.8337C33.333 24.7286 32.8937 23.6691 32.1123 22.8877C31.4286 22.204 30.532 21.7829 29.5781 21.6881L29.1663 21.667H10.833C8.84388 21.667 6.9368 20.8762 5.53027 19.4697C4.12375 18.0632 3.33301 16.1561 3.33301 14.167C3.33301 12.1779 4.12375 10.2708 5.53027 8.86426C6.9368 7.45773 8.84388 6.66699 10.833 6.66699H24.9997C25.9202 6.66699 26.6663 7.41318 26.6663 8.33366C26.6663 9.25413 25.9202 10.0003 24.9997 10.0003H10.833C9.72794 10.0003 8.66845 10.4396 7.88704 11.221C7.10564 12.0024 6.66634 13.0619 6.66634 14.167L6.6875 14.5788C6.78222 15.5326 7.20333 16.4292 7.88704 17.113C8.66845 17.8944 9.72794 18.3337 10.833 18.3337H29.1663C31.1555 18.3337 33.0626 19.1244 34.4691 20.5309C35.8756 21.9374 36.6663 23.8445 36.6663 25.8337C36.6663 27.8228 35.8756 29.7299 34.4691 31.1364C33.0626 32.5429 31.1555 33.3337 29.1663 33.3337H14.9997C14.0792 33.3337 13.333 32.5875 13.333 31.667C13.333 30.7465 14.0792 30.0003 14.9997 30.0003H29.1663L29.5781 29.9792C30.532 29.8844 31.4286 29.4633 32.1123 28.7796C32.8937 27.9982 33.333 26.9387 33.333 25.8337Z" fill="#0F0005"/>
<path d="M33.333 8.33366C33.333 6.49271 31.8406 5.00033 29.9997 5.00033C28.1587 5.00033 26.6663 6.49271 26.6663 8.33366C26.6663 10.1746 28.1587 11.667 29.9997 11.667C31.8406 11.667 33.333 10.1746 33.333 8.33366ZM36.6663 8.33366C36.6663 12.0156 33.6816 15.0003 29.9997 15.0003C26.3178 15.0003 23.333 12.0156 23.333 8.33366C23.333 4.65176 26.3178 1.66699 29.9997 1.66699C33.6816 1.66699 36.6663 4.65176 36.6663 8.33366Z" fill="#0F0005"/>
</svg>
