<svg width="16" height="16" viewBox="0 0 16 16" fill="none" xmlns="http://www.w3.org/2000/svg">
<path d="M5.61073 6.66667L8.00128 9.0572L10.3918 6.66667C10.6522 6.40635 11.0742 6.40635 11.3346 6.66667C11.3671 6.69927 11.3956 6.73433 11.42 6.77127C11.5909 7.03007 11.5624 7.38173 11.3346 7.60953L8.47268 10.4715C8.34762 10.5965 8.17808 10.6667 8.00128 10.6667C7.82442 10.6667 7.65488 10.5965 7.52988 10.4715L4.66792 7.60953C4.40757 7.34913 4.40757 6.92707 4.66792 6.66667C4.70046 6.63415 4.73554 6.60568 4.7725 6.58127C5.03127 6.41042 5.38292 6.43889 5.61073 6.66667Z" fill="#0F0005"/>
</svg>
