<svg width="38" height="28" viewBox="0 0 38 28" fill="none" xmlns="http://www.w3.org/2000/svg">
<path d="M27.333 17.3771L21.0716 20.2189C20.5023 20.4781 19.8897 20.6266 19.2666 20.66L18.9997 20.6681C18.3734 20.6681 17.7533 20.5498 17.1719 20.3215L16.9245 20.2173L10.6663 17.3625V20.6665L10.6842 20.8276C10.7716 21.2501 11.2123 21.9819 12.6732 22.7124C14.264 23.5078 16.5395 23.9998 18.9997 23.9998L19.9128 23.9771C22.0175 23.8718 23.9327 23.4082 25.3245 22.7124C26.9934 21.878 27.333 21.0416 27.333 20.6665V17.3771ZM33.9997 20.6665V14.3514L30.6663 15.8634V20.6665C30.6663 22.9436 28.8973 24.6516 26.8154 25.6925C24.7905 26.705 22.1924 27.2611 19.5319 27.3267L18.9997 27.3332C16.1555 27.3332 13.3422 26.7725 11.1823 25.6925C9.23107 24.7167 7.5547 23.1552 7.35254 21.0881L7.33301 20.6665V15.8423L2.64063 13.7036V13.702C2.05764 13.4412 1.5613 13.0194 1.21159 12.4845C0.85709 11.9423 0.667969 11.3079 0.667969 10.66C0.668054 10.0124 0.857281 9.37916 1.21159 8.83708C1.56177 8.30142 2.05819 7.87713 2.64225 7.61637L16.9245 1.11898V1.11735C17.5759 0.820262 18.2838 0.666504 18.9997 0.666504C19.7155 0.666552 20.4236 0.820268 21.0749 1.11735L21.0732 1.11898L35.3587 7.62288L35.3571 7.62451C35.9381 7.87757 36.4364 8.28988 36.791 8.81592C37.1553 9.35642 37.3522 9.99197 37.3591 10.6437C37.3606 10.7959 37.352 10.948 37.333 11.0978V20.6665C37.333 21.5869 36.5867 22.333 35.6663 22.3332C34.7459 22.3332 33.9997 21.587 33.9997 20.6665ZM4.02409 10.6714L18.3079 17.1834L18.474 17.2485C18.6431 17.3048 18.8207 17.3348 18.9997 17.3348L19.1771 17.325C19.3545 17.306 19.5284 17.2578 19.6914 17.1834H19.6947L33.9997 10.6909V10.6665C33.9921 10.6632 33.9844 10.6601 33.9769 10.6567L19.6914 4.1512V4.14958C19.4744 4.05058 19.2382 3.99989 18.9997 3.99984C18.8208 3.99984 18.643 4.02833 18.474 4.08447L18.3079 4.14958L18.3063 4.1512L4.02246 10.6502L4.0013 10.66L4.02409 10.6714Z" fill="#0F0005"/>
</svg>
