<svg width="38" height="28" viewBox="0 0 38 28" fill="none" xmlns="http://www.w3.org/2000/svg">
<path d="M27.333 17.3774L21.0716 20.2192C20.5023 20.4784 19.8897 20.6269 19.2666 20.6602L18.9997 20.6684C18.3734 20.6684 17.7533 20.55 17.1719 20.3217L16.9245 20.2175L10.6663 17.3627V20.6667L10.6842 20.8279C10.7716 21.2503 11.2123 21.9822 12.6732 22.7126C14.264 23.5081 16.5395 24.0001 18.9997 24.0001L19.9128 23.9773C22.0175 23.872 23.9327 23.4084 25.3245 22.7126C26.9934 21.8782 27.333 21.0418 27.333 20.6667V17.3774ZM33.9997 20.6667V14.3516L30.6663 15.8637V20.6667C30.6663 22.9438 28.8973 24.6518 26.8154 25.6928C24.7905 26.7052 22.1924 27.2614 19.5319 27.3269L18.9997 27.3334C16.1555 27.3334 13.3422 26.7727 11.1823 25.6928C9.23107 24.717 7.5547 23.1554 7.35254 21.0883L7.33301 20.6667V15.8425L2.64063 13.7039V13.7022C2.05764 13.4414 1.5613 13.0196 1.21159 12.4848C0.85709 11.9425 0.667969 11.3081 0.667969 10.6602C0.668054 10.0126 0.857281 9.37941 1.21159 8.83732C1.56177 8.30166 2.05819 7.87738 2.64225 7.61662L16.9245 1.11922V1.11759C17.5759 0.820506 18.2838 0.666748 18.9997 0.666748C19.7155 0.666796 20.4236 0.820512 21.0749 1.11759L21.0732 1.11922L35.3587 7.62313L35.3571 7.62476C35.9381 7.87781 36.4364 8.29012 36.791 8.81616C37.1553 9.35666 37.3522 9.99222 37.3591 10.644C37.3606 10.7961 37.352 10.9483 37.333 11.0981V20.6667C37.333 21.5871 36.5867 22.3332 35.6663 22.3334C34.7459 22.3334 33.9997 21.5872 33.9997 20.6667ZM4.02409 10.6716L18.3079 17.1837L18.474 17.2488C18.6431 17.305 18.8207 17.335 18.9997 17.335L19.1771 17.3253C19.3545 17.3063 19.5284 17.258 19.6914 17.1837H19.6947L33.9997 10.6912V10.6667C33.9921 10.6634 33.9844 10.6604 33.9769 10.657L19.6914 4.15145V4.14982C19.4744 4.05083 19.2382 4.00013 18.9997 4.00008C18.8208 4.00008 18.643 4.02858 18.474 4.08472L18.3079 4.14982L18.3063 4.15145L4.02246 10.6505L4.0013 10.6602L4.02409 10.6716Z" fill="#0F0005"/>
</svg>
