<svg width="48" height="52" viewBox="0 0 48 52" fill="none" xmlns="http://www.w3.org/2000/svg">
<path d="M14.6667 42.3335C14.6667 39.7562 12.5773 37.6668 10 37.6668C7.42267 37.6668 5.33333 39.7562 5.33333 42.3335C5.33333 44.9108 7.42267 47.0002 10 47.0002C12.5773 47.0002 14.6667 44.9108 14.6667 42.3335ZM19.3333 42.3335C19.3333 47.4882 15.1547 51.6668 10 51.6668C4.84534 51.6668 0.666668 47.4882 0.666668 42.3335C0.666668 37.1788 4.84534 33.0002 10 33.0002C15.1547 33.0002 19.3333 37.1788 19.3333 42.3335Z" fill="#0F0005"/>
<path d="M42.6667 34.1668C42.6667 32.6197 42.0516 31.1364 40.9577 30.0425C40.0005 29.0853 38.7452 28.4957 37.4098 28.3631L36.8333 28.3335H11.1667C8.38189 28.3335 5.71197 27.2265 3.74284 25.2573C1.77371 23.2882 0.666668 20.6183 0.666668 17.8335C0.666668 15.0487 1.77371 12.3788 3.74284 10.4097C5.71197 8.44054 8.38189 7.3335 11.1667 7.3335H31C32.2887 7.3335 33.3333 8.37817 33.3333 9.66683C33.3333 10.9555 32.2887 12.0002 31 12.0002H11.1667C9.61957 12.0002 8.13628 12.6152 7.04232 13.7091C5.94836 14.8031 5.33333 16.2864 5.33333 17.8335L5.36296 18.41C5.49556 19.7454 6.08511 21.0006 7.04232 21.9578C8.13628 23.0518 9.61957 23.6668 11.1667 23.6668H36.8333C39.6181 23.6668 42.288 24.7739 44.2572 26.743C46.2263 28.7121 47.3333 31.3821 47.3333 34.1668C47.3333 36.9516 46.2263 39.6215 44.2572 41.5907C42.288 43.5598 39.6181 44.6668 36.8333 44.6668H17C15.7113 44.6668 14.6667 43.6222 14.6667 42.3335C14.6667 41.0448 15.7113 40.0002 17 40.0002H36.8333L37.4098 39.9705C38.7452 39.8379 40.0005 39.2484 40.9577 38.2912C42.0516 37.1972 42.6667 35.7139 42.6667 34.1668Z" fill="#0F0005"/>
<path d="M42.6667 9.66683C42.6667 7.0895 40.5773 5.00016 38 5.00016C35.4227 5.00016 33.3333 7.0895 33.3333 9.66683C33.3333 12.2442 35.4227 14.3335 38 14.3335C40.5773 14.3335 42.6667 12.2442 42.6667 9.66683ZM47.3333 9.66683C47.3333 14.8215 43.1547 19.0002 38 19.0002C32.8453 19.0002 28.6667 14.8215 28.6667 9.66683C28.6667 4.51217 32.8453 0.333496 38 0.333496C43.1547 0.333496 47.3333 4.51217 47.3333 9.66683Z" fill="#0F0005"/>
</svg>
