<svg width="40" height="40" viewBox="0 0 40 40" fill="none" xmlns="http://www.w3.org/2000/svg">
<path d="M27.2812 2.04085C27.9359 1.50694 28.9009 1.54459 29.5111 2.15479L34.5111 7.15478L34.625 7.28174C35.1589 7.93636 35.1213 8.90136 34.5111 9.51156C33.9009 10.1217 32.9359 10.1594 32.2812 9.62549L32.1543 9.51156L29.9993 7.35661V10.9764L34.5111 15.4881L34.625 15.6151C35.1589 16.2697 35.1213 17.2347 34.5111 17.8449C33.9009 18.4551 32.9359 18.4927 32.2812 17.9588L32.1543 17.8449L29.9993 15.6899V22.8547L38.0788 35.7827C38.3997 36.2962 38.4176 36.944 38.1243 37.4738C37.8306 38.0037 37.2719 38.3332 36.666 38.3332H3.33268C2.72681 38.3332 2.16806 38.0037 1.87435 37.4738C1.58107 36.944 1.59896 36.2962 1.91992 35.7827L10.2533 22.4494L10.377 22.2769C10.6911 21.8934 11.163 21.6665 11.666 21.6665H26.666V15.6899L24.5111 17.8449C23.8602 18.4958 22.8052 18.4958 22.1543 17.8449C21.5034 17.194 21.5034 16.139 22.1543 15.4881L26.666 10.9764V7.35661L24.5111 9.51156C23.8602 10.1624 22.8052 10.1624 22.1543 9.51156C21.5034 8.86068 21.5034 7.80566 22.1543 7.15478L27.1543 2.15479L27.2812 2.04085ZM24.2555 34.9998H33.6598L27.4098 24.9998H18.0055L24.2555 34.9998ZM14.9993 34.9998H20.3265L14.9993 26.4761V34.9998ZM6.33887 34.9998H11.666V26.4761L6.33887 34.9998ZM8.33268 6.6665C8.33268 5.74603 7.58649 4.99984 6.66602 4.99984C5.74554 4.99984 4.99935 5.74603 4.99935 6.6665C4.99935 7.58698 5.74554 8.33317 6.66602 8.33317C7.58649 8.33317 8.33268 7.58698 8.33268 6.6665ZM11.666 6.6665C11.666 9.42793 9.42744 11.6665 6.66602 11.6665C3.90459 11.6665 1.66602 9.42793 1.66602 6.6665C1.66602 3.90508 3.90459 1.6665 6.66602 1.6665C9.42744 1.6665 11.666 3.90508 11.666 6.6665Z" fill="#0F0005"/>
</svg>
