<svg width="40" height="40" viewBox="0 0 40 40" fill="none" xmlns="http://www.w3.org/2000/svg">
<path d="M31.395 3.56316C28.1616 1.31737 24.235 0 20 0C19.9986 0 19.9973 0 19.9959 0V3.56316H31.395Z" fill="#0F0005"/>
<path d="M19.9962 11.7735H38.2356C37.6448 10.466 36.9171 9.23378 36.0714 8.09408H19.9959L19.9962 11.7735Z" fill="#0F0005"/>
<path d="M19.9959 19.9848H40C39.9991 18.7277 39.881 17.4981 39.6583 16.3053H19.9959V19.9848Z" fill="#0F0005"/>
<path d="M36.2139 31.709C36.0992 31.869 35.9809 32.0274 35.859 32.1837C35.8433 32.2064 35.8276 32.2272 35.8104 32.248C35.7548 32.3211 35.6972 32.3923 35.6399 32.4638C35.5095 32.6289 35.3755 32.7907 35.24 32.9506C35.2312 32.9612 35.2209 32.9733 35.2122 32.9836C35.16 33.0445 35.1096 33.1036 35.0574 33.1628C34.9807 33.2515 34.9025 33.3384 34.8226 33.4254C34.7513 33.5036 34.6801 33.582 34.6086 33.6584C34.4661 33.8114 34.3198 33.9626 34.1704 34.1123C34.1094 34.1732 34.0487 34.2339 33.986 34.2949C33.9651 34.3157 33.9425 34.3366 33.9217 34.3592C33.8607 34.4183 33.8 34.4757 33.7391 34.533C33.6313 34.6356 33.5218 34.7365 33.4122 34.8357C33.3201 34.9209 33.226 35.0044 33.1304 35.0844C33.0712 35.1366 33.0121 35.187 32.9529 35.2374C32.8938 35.2896 32.8346 35.3382 32.7737 35.3886H7.22597C7.16503 35.3382 7.10588 35.2896 7.04674 35.2374C6.98759 35.187 6.92844 35.1366 6.8693 35.0844C6.77363 35.0044 6.67976 34.9209 6.58745 34.8357C6.4779 34.7367 6.36834 34.6356 6.26057 34.533C6.19964 34.4757 6.13892 34.4183 6.07798 34.3592C6.05714 34.3366 6.03452 34.3157 6.01368 34.2949C5.95095 34.2339 5.89023 34.1732 5.82929 34.1123C5.67963 33.9626 5.53356 33.8114 5.39107 33.6584C5.31982 33.5818 5.24835 33.5036 5.17711 33.4254C5.09713 33.3384 5.01893 33.2515 4.94231 33.1628C4.89011 33.1036 4.8397 33.0445 4.7875 32.9836C4.77876 32.973 4.76846 32.9609 4.75972 32.9506C4.62417 32.7907 4.4902 32.6289 4.3598 32.4638C4.30245 32.3925 4.24509 32.3211 4.18931 32.248C4.17183 32.2272 4.15637 32.2064 4.14069 32.1837C4.0206 32.0271 3.90253 31.869 3.78581 31.709H36.2139Z" fill="#0F0005"/>
<path d="M20.0001 39.9997C22.4458 39.9997 24.7884 39.5599 26.9544 38.7565H13.0457C15.2117 39.5599 17.5547 39.9997 20.0001 39.9997Z" fill="#0F0005"/>
<path d="M39.64 23.7891C39.6382 23.7942 39.6382 23.8012 39.6365 23.8065C39.6156 23.923 39.593 24.0378 39.5686 24.1543C39.5426 24.2743 39.5164 24.396 39.4886 24.5161C39.2538 25.5317 38.9408 26.5195 38.5563 27.4692H1.44357C1.05934 26.5197 0.746132 25.5319 0.511336 24.5161C0.483555 24.396 0.457342 24.2743 0.431353 24.1543C0.406932 24.0326 0.382736 23.9107 0.360107 23.7891H39.64Z" fill="#0F0005"/>
<path d="M19.4845 0.0069453C19.2741 0.0120983 19.0635 0.0208359 18.8531 0.0329342C18.7315 0.0398795 18.6078 0.0468248 18.4861 0.0573547C18.3575 0.0660924 18.2287 0.0763983 18.1001 0.0902889C17.9523 0.10418 17.8044 0.119862 17.6567 0.137338C17.6446 0.137338 17.6341 0.13913 17.622 0.140922C17.4708 0.158398 17.3211 0.179234 17.1715 0.200069C17.0429 0.217545 16.914 0.236588 16.7854 0.259217C16.7211 0.267954 16.6568 0.27826 16.5923 0.290582C16.5088 0.304473 16.4236 0.320156 16.34 0.335839C16.3123 0.340992 16.2827 0.346369 16.2549 0.351522L16.2531 0.353314L15.7383 0.85584L16.0147 2.45953H16.0129L14.5746 1.70294L14.392 1.79861L13.1365 2.45953H13.1347L13.3625 1.13074V1.12895C13.3121 1.14642 13.2635 1.16367 13.2129 1.18294C13.0478 1.24209 12.8824 1.30303 12.7189 1.36912C12.6476 1.3969 12.5761 1.42468 12.5049 1.45426C12.4475 1.47509 12.3902 1.49951 12.3344 1.52393C12.2508 1.55866 12.1675 1.59339 12.0857 1.62991C11.8856 1.71504 11.6858 1.80555 11.4891 1.89764C11.477 1.90279 11.4665 1.90817 11.4544 1.91511C11.3674 1.95678 11.2787 1.99868 11.1918 2.04035L11.1082 2.08202C10.9655 2.15327 10.8248 2.22474 10.6857 2.29934C10.5309 2.37933 10.3761 2.46289 10.223 2.54982C10.0369 2.65602 9.8509 2.76378 9.66831 2.87334C9.6282 2.89776 9.58832 2.92195 9.54822 2.94638C9.44919 3.00731 9.34994 3.06803 9.25248 3.13255C9.23165 3.14465 9.21081 3.15854 9.18998 3.17243C9.11515 3.21948 9.04211 3.26631 8.96907 3.31672C8.823 3.41238 8.67871 3.51141 8.53421 3.61245C8.44212 3.67675 8.34982 3.74284 8.25953 3.80894C8.07694 3.94112 7.8977 4.07667 7.72049 4.21423C7.61093 4.29937 7.50137 4.38629 7.39361 4.47501C7.32752 4.52901 7.26142 4.58278 7.19533 4.63856C7.1084 4.70824 7.02327 4.78128 6.93791 4.85589C6.87181 4.91324 6.80572 4.97059 6.73963 5.02974C6.71006 5.05416 6.68227 5.08015 6.6527 5.10636C6.57966 5.17246 6.50663 5.23855 6.43538 5.30464C6.27026 5.45766 6.10671 5.61247 5.94831 5.77065C5.86833 5.84884 5.78835 5.92882 5.70993 6.00881C5.55333 6.16877 5.39851 6.33232 5.24729 6.49744C5.18993 6.55995 5.13258 6.62447 5.07679 6.68698C5.04542 6.71991 5.01764 6.75128 4.98986 6.78444C4.92556 6.85748 4.86283 6.93051 4.80032 7.00355C4.72549 7.08869 4.65245 7.17405 4.583 7.26098L4.71698 8.04535L4.18129 7.76373C4.00049 7.99673 3.82484 8.23332 3.65435 8.47506C3.48564 8.71501 3.32053 8.96033 3.16034 9.20902C3.00037 9.45771 2.84556 9.70998 2.69769 9.96561C2.62286 10.0942 2.54982 10.223 2.47858 10.3534C2.40733 10.482 2.33765 10.6126 2.2682 10.7448L3.27684 10.8927L2.11339 12.0284L2.21779 12.6422L2.38829 13.6336L1.24926 13.0336C1.21453 13.1293 1.1798 13.225 1.14485 13.3206C1.12223 13.3798 1.10139 13.4407 1.08212 13.4999C1.04919 13.5955 1.01603 13.6912 0.986457 13.7869C0.974358 13.8216 0.962036 13.8565 0.95173 13.8913C0.911851 14.0129 0.875108 14.1366 0.838589 14.2583C0.835004 14.267 0.831644 14.2757 0.831644 14.2842C0.795125 14.4007 0.761967 14.5172 0.729033 14.6337C0.676831 14.8233 0.626421 15.0146 0.579372 15.2077C0.516865 15.46 0.459286 15.7139 0.407308 15.9695C0.377735 16.1156 0.348161 16.2598 0.323741 16.4059C0.297752 16.5502 0.271539 16.6963 0.248911 16.8424C0.231435 16.9555 0.214184 17.0684 0.198501 17.1831C0.189764 17.2335 0.182818 17.2857 0.175873 17.3379C0.158398 17.4665 0.142939 17.5972 0.128824 17.7275C0.114934 17.8389 0.104404 17.9502 0.0940976 18.0614C0.0819993 18.1815 0.0714694 18.3031 0.0627317 18.4248C0.0591471 18.4456 0.0575788 18.4664 0.0575788 18.4873C0.0470488 18.6107 0.0385352 18.7342 0.0331582 18.8576C0.0295735 18.908 0.0262129 18.9602 0.0244206 19.0106C0.0156829 19.1688 0.01053 19.3254 0.0069453 19.4836C0.00179234 19.6505 0 19.8174 0 19.9861L19.9959 19.9848V0C19.8239 0 19.655 0.00179234 19.4845 0.0069453ZM9.37123 5.07119L9.80071 4.20168L10.0911 3.612L10.8094 5.07119L11.8753 5.226L12.418 5.30599L11.524 6.17908L11.2545 6.44165L11.3258 6.85568L11.5292 8.04535L10.0908 7.28876L8.65093 8.04535L8.71882 7.65238L8.92583 6.44188L7.82332 5.36536L7.76238 5.30621L9.37123 5.07119ZM4.71743 19.2192L3.33307 18.4906L3.27908 18.4628L1.83916 19.2194L1.88621 18.9463L2.11406 17.6142L0.95061 16.4785L2.55923 16.2455L2.67237 16.0143L3.27751 14.7848L3.2793 14.7865L3.86024 15.9657L3.99758 16.2457L4.71227 16.3483L5.6062 16.4787L4.44275 17.6144L4.71743 19.2192ZM6.12441 11.5671L5.43391 10.8922L7.04253 10.6575L7.53117 9.66607L7.76238 9.19827L8.48066 10.6575H8.48245L10.0911 10.8922L9.72768 11.2471L8.92583 12.0279L9.20073 13.6332L7.76238 12.8748L6.32246 13.6332L6.59736 12.0279L6.12441 11.5671ZM11.5296 19.2192L10.3315 18.5879L10.0915 18.4626L8.6516 19.2192L8.75063 18.647L8.92628 17.614L7.76283 16.4783L9.37145 16.2453L9.54015 15.9009L10.0915 14.7861L10.5802 15.7775L10.8098 16.2453L11.5594 16.353L12.4186 16.4783L11.2552 17.614L11.5296 19.2192ZM13.1349 13.633L13.4096 12.0277L12.9086 11.5373L12.2461 10.892L13.8548 10.6572L14.2827 9.79108L14.5748 9.19804L14.6635 9.37884L15.2949 10.657L16.9019 10.8918L15.7385 12.0275L16.015 13.6327H16.0132V13.6309L14.5748 12.8743L13.1365 13.6309L13.1349 13.633ZM18.1452 18.0661L18.3416 19.2192L16.9033 18.4626L15.4634 19.2192L15.6077 18.3811L15.738 17.6142L14.5746 16.4785L16.1832 16.2455L16.9033 14.7863L17.6234 16.2455L18.3347 16.3481L19.2304 16.4785L18.067 17.6142L18.1452 18.0661ZM18.067 6.44165L18.093 6.58773L18.3416 8.04512L16.9033 7.28853L15.4634 8.04512L15.6025 7.23812L15.7383 6.44165L14.5748 5.30599L15.0079 5.24169L16.1834 5.07119L16.9035 3.612L17.6234 5.07119L18.7259 5.23116L19.2302 5.30599L18.067 6.44165Z" fill="#0F0005"/>
<path d="M36.6667 20C36.6667 10.7953 29.2047 3.33333 20 3.33333C10.7953 3.33333 3.33333 10.7953 3.33333 20C3.33333 29.2047 10.7953 36.6667 20 36.6667L20.0001 39.9997C8.95444 39.9997 0 31.0457 0 20C0 8.95431 8.95427 0 20 0C31.0457 0 40 8.95431 40 20C40 31.0457 31.0458 39.9997 20.0001 39.9997L20 36.6667C29.2047 36.6667 36.6667 29.2047 36.6667 20Z" fill="#0F0005"/>
</svg>
