<svg width="64" height="64" viewBox="0 0 64 64" fill="none" xmlns="http://www.w3.org/2000/svg">
  <!-- Background -->
  <rect width="64" height="64" fill="#B22234"/>
  
  <!-- White stripes -->
  <rect y="4.92" width="64" height="4.16" fill="white"/>
  <rect y="13.24" width="64" height="4.16" fill="white"/>
  <rect y="21.56" width="64" height="4.16" fill="white"/>
  <rect y="29.88" width="64" height="4.16" fill="white"/>
  <rect y="38.2" width="64" height="4.16" fill="white"/>
  <rect y="46.52" width="64" height="4.16" fill="white"/>
  <rect y="54.84" width="64" height="4.16" fill="white"/>
  
  <!-- Blue field -->
  <rect width="25.6" height="17.6" fill="#3C3B6E"/>
  
  <!-- Stars (simplified) -->
  <g fill="white">
    <circle cx="4.8" cy="4.4" r="1.2"/>
    <circle cx="8.8" cy="4.4" r="1.2"/>
    <circle cx="12.8" cy="4.4" r="1.2"/>
    <circle cx="16.8" cy="4.4" r="1.2"/>
    <circle cx="20.8" cy="4.4" r="1.2"/>
    <circle cx="6.8" cy="7.6" r="1.2"/>
    <circle cx="10.8" cy="7.6" r="1.2"/>
    <circle cx="14.8" cy="7.6" r="1.2"/>
    <circle cx="18.8" cy="7.6" r="1.2"/>
    <circle cx="4.8" cy="10.8" r="1.2"/>
    <circle cx="8.8" cy="10.8" r="1.2"/>
    <circle cx="12.8" cy="10.8" r="1.2"/>
    <circle cx="16.8" cy="10.8" r="1.2"/>
    <circle cx="20.8" cy="10.8" r="1.2"/>
    <circle cx="6.8" cy="14" r="1.2"/>
    <circle cx="10.8" cy="14" r="1.2"/>
    <circle cx="14.8" cy="14" r="1.2"/>
    <circle cx="18.8" cy="14" r="1.2"/>
    <circle cx="4.8" cy="17.2" r="1.2"/>
    <circle cx="8.8" cy="17.2" r="1.2"/>
    <circle cx="12.8" cy="17.2" r="1.2"/>
    <circle cx="16.8" cy="17.2" r="1.2"/>
    <circle cx="20.8" cy="17.2" r="1.2"/>
  </g>
</svg>
