<svg width="40" height="40" viewBox="0 0 40 40" fill="none" xmlns="http://www.w3.org/2000/svg">
<path fill-rule="evenodd" clip-rule="evenodd" d="M26.666 11.6667C26.666 15.3486 23.6812 18.3333 19.9993 18.3333C16.3174 18.3333 13.3327 15.3486 13.3327 11.6667C13.3327 7.98477 16.3174 5 19.9993 5C23.6812 5 26.666 7.98477 26.666 11.6667ZM23.3327 11.6667C23.3327 13.5076 21.8403 15 19.9993 15C18.1583 15 16.666 13.5076 16.666 11.6667C16.666 9.82572 18.1583 8.33333 19.9993 8.33333C21.8403 8.33333 23.3327 9.82572 23.3327 11.6667Z" fill="#0F0005"/>
<path fill-rule="evenodd" clip-rule="evenodd" d="M33.3327 28.611C33.3327 27.8888 33.1063 27.179 32.6352 26.6317C29.5787 23.0813 25.0515 20.8333 19.9993 20.8333C14.9471 20.8333 10.4199 23.0813 7.36347 26.6317C6.89228 27.179 6.66602 27.8888 6.66602 28.611V31.6667C6.66602 33.5077 8.1584 35 9.99935 35H29.9993C31.8403 35 33.3327 33.5077 33.3327 31.6667V28.611ZM29.9993 28.6805C27.5515 25.9075 23.9805 24.1667 19.9993 24.1667C16.0182 24.1667 12.4472 25.9075 9.99935 28.6805V31.6667H29.9993V28.6805Z" fill="#0F0005"/>
</svg>
