<svg width="12" height="12" viewBox="0 0 12 12" fill="none" xmlns="http://www.w3.org/2000/svg">
<path fill-rule="evenodd" clip-rule="evenodd" d="M8.6665 2.66667C8.6665 4.13943 7.47257 5.33333 5.99984 5.33333C4.52708 5.33333 3.33317 4.13943 3.33317 2.66667C3.33317 1.19391 4.52708 0 5.99984 0C7.47257 0 8.6665 1.19391 8.6665 2.66667ZM7.33317 2.66667C7.33317 3.40305 6.73624 4 5.99984 4C5.26344 4 4.6665 3.40305 4.6665 2.66667C4.6665 1.93029 5.26344 1.33333 5.99984 1.33333C6.73624 1.33333 7.33317 1.93029 7.33317 2.66667Z" fill="#FFBD1A"/>
<path fill-rule="evenodd" clip-rule="evenodd" d="M11.3332 9.4444C11.3332 9.15553 11.2426 8.8716 11.0542 8.65267C9.83157 7.23253 8.0207 6.33333 5.99984 6.33333C3.97894 6.33333 2.16807 7.23253 0.945484 8.65267C0.757011 8.8716 0.666504 9.15553 0.666504 9.4444V10.6667C0.666504 11.4031 1.26346 12 1.99984 12H9.99984C10.7362 12 11.3332 11.4031 11.3332 10.6667V9.4444ZM9.99984 9.4722C9.0207 8.363 7.5923 7.66667 5.99984 7.66667C4.40738 7.66667 2.97898 8.363 1.99984 9.4722V10.6667H9.99984V9.4722Z" fill="#FFBD1A"/>
</svg>
