<svg width="40" height="40" viewBox="0 0 40 40" fill="none" xmlns="http://www.w3.org/2000/svg">
<g clip-path="url(#clip0_1212_11073)">
<path fill-rule="evenodd" clip-rule="evenodd" d="M23.334 11.6667C23.334 15.3486 20.3492 18.3333 16.6673 18.3333C12.9854 18.3333 10.0007 15.3486 10.0007 11.6667C10.0007 7.98477 12.9854 5 16.6673 5C20.3492 5 23.334 7.98477 23.334 11.6667ZM20.0007 11.6667C20.0007 13.5076 18.5083 15 16.6673 15C14.8264 15 13.334 13.5076 13.334 11.6667C13.334 9.82572 14.8264 8.33333 16.6673 8.33333C18.5083 8.33333 20.0007 9.82572 20.0007 11.6667Z" fill="#0F0005"/>
<path fill-rule="evenodd" clip-rule="evenodd" d="M30.0007 28.611C30.0007 27.8888 29.7743 27.179 29.3032 26.6317C26.2468 23.0813 21.7195 20.8333 16.6673 20.8333C11.6151 20.8333 7.0879 23.0813 4.03143 26.6317C3.56025 27.179 3.33398 27.8888 3.33398 28.611V31.6667C3.33398 33.5077 4.82637 35 6.66732 35H26.6673C28.5083 35 30.0007 33.5077 30.0007 31.6667V28.611ZM26.6673 28.6805C24.2195 25.9075 20.6485 24.1667 16.6673 24.1667C12.6862 24.1667 9.11518 25.9075 6.66732 28.6805V31.6667H26.6673V28.6805Z" fill="#0F0005"/>
<path d="M33.334 21.6667C32.4135 21.6667 31.6673 20.9205 31.6673 20V16.6667H28.334C27.4135 16.6667 26.6673 15.9205 26.6673 15C26.6673 14.0795 27.4135 13.3333 28.334 13.3333H31.6673V10C31.6673 9.07953 32.4135 8.33333 33.334 8.33333C34.2545 8.33333 35.0007 9.07953 35.0007 10V13.3333H38.334C39.2545 13.3333 40.0007 14.0795 40.0007 15C40.0007 15.9205 39.2545 16.6667 38.334 16.6667H35.0007V20C35.0007 20.9205 34.2545 21.6667 33.334 21.6667Z" fill="#0F0005"/>
</g>
<defs>
<clipPath id="clip0_1212_11073">
<rect width="40" height="40" fill="white"/>
</clipPath>
</defs>
</svg>
