<svg width="40" height="40" viewBox="0 0 40 40" fill="none" xmlns="http://www.w3.org/2000/svg">
<path fill-rule="evenodd" clip-rule="evenodd" d="M11.6667 17.5C15.1184 17.5 17.9167 14.7018 17.9167 11.25C17.9167 7.79822 15.1184 5 11.6667 5C8.21488 5 5.41667 7.79822 5.41667 11.25C5.41667 14.7018 8.21488 17.5 11.6667 17.5ZM11.6667 14.1667C13.2775 14.1667 14.5833 12.8608 14.5833 11.25C14.5833 9.63917 13.2775 8.33333 11.6667 8.33333C10.0558 8.33333 8.75 9.63917 8.75 11.25C8.75 12.8608 10.0558 14.1667 11.6667 14.1667Z" fill="#0F0005"/>
<path fill-rule="evenodd" clip-rule="evenodd" d="M34.5833 11.25C34.5833 14.7018 31.7852 17.5 28.3333 17.5C24.8815 17.5 22.0833 14.7018 22.0833 11.25C22.0833 7.79822 24.8815 5 28.3333 5C31.7852 5 34.5833 7.79822 34.5833 11.25ZM31.25 11.25C31.25 12.8608 29.9442 14.1667 28.3333 14.1667C26.7225 14.1667 25.4167 12.8608 25.4167 11.25C25.4167 9.63917 26.7225 8.33333 28.3333 8.33333C29.9442 8.33333 31.25 9.63917 31.25 11.25Z" fill="#0F0005"/>
<path fill-rule="evenodd" clip-rule="evenodd" d="M25.7645 23.6272C26.5887 23.435 27.4485 23.3333 28.3333 23.3333C31.6363 23.3333 34.604 24.7528 36.6667 27.0255V30H26.6667C26.6667 31.2143 26.342 32.3528 25.7748 33.3333H36.6667C38.5077 33.3333 40 31.841 40 30V26.9447C40 26.2223 39.7748 25.5113 39.2985 24.9685C36.6257 21.9227 32.704 20 28.3333 20C26.5443 20 24.8305 20.3222 23.2467 20.9117C23.922 21.484 24.554 22.1053 25.1372 22.7698C25.3772 23.0433 25.5855 23.3307 25.7645 23.6272Z" fill="#0F0005"/>
<path fill-rule="evenodd" clip-rule="evenodd" d="M20 33.3333C21.841 33.3333 23.3333 31.841 23.3333 30V26.9447C23.3333 26.2223 23.1082 25.5113 22.6318 24.9685C21.8538 24.082 20.97 23.2905 20 22.614C17.6378 20.9663 14.7651 20 11.6667 20C7.29597 20 3.37435 21.9227 0.701513 24.9685C0.22516 25.5113 0 26.2223 0 26.9447V30C0 31.841 1.49239 33.3333 3.33333 33.3333H20ZM11.6667 23.3333C14.9697 23.3333 17.9373 24.7528 20 27.0255V30H3.33333V27.0255C5.39597 24.7528 8.36362 23.3333 11.6667 23.3333ZM3.33367 26.9362C3.33365 26.9363 3.33372 26.9357 3.33367 26.9362V26.9362Z" fill="#0F0005"/>
</svg>
