<svg width="40" height="40" viewBox="0 0 40 40" fill="none" xmlns="http://www.w3.org/2000/svg">
<path d="M25 1.6665C25.6945 1.6665 26.3168 2.09703 26.5609 2.74723C29.0697 9.43734 30 13.0121 30 16.6665L29.987 17.1629C29.8642 19.6343 28.8283 21.9788 27.0703 23.7368C25.5926 25.2145 23.7003 26.1794 21.6667 26.5233V34.9998H26.6667C27.5871 34.9998 28.3333 35.746 28.3333 36.6665C28.3333 37.587 27.5871 38.3332 26.6667 38.3332H13.3333C12.4129 38.3332 11.6667 37.587 11.6667 36.6665C11.6667 35.746 12.4129 34.9998 13.3333 34.9998H18.3333V26.5233C16.2997 26.1794 14.4074 25.2145 12.9297 23.7368C11.0543 21.8615 10 19.3187 10 16.6665C10 13.0121 10.9303 9.43734 13.4391 2.74723L13.5482 2.51449C13.8402 1.99635 14.3922 1.6665 15 1.6665H25ZM13.5465 18.3332C13.8418 19.4764 14.4373 20.5309 15.2865 21.38C16.5367 22.6303 18.2319 23.3332 20 23.3332L20.3304 23.325C21.9782 23.2433 23.5414 22.5522 24.7135 21.38C25.5627 20.5309 26.1582 19.4764 26.4534 18.3332H13.5465ZM16.1654 4.99984C14.4118 9.77409 13.6422 12.5925 13.4131 14.9998H26.5869C26.3578 12.5925 25.5882 9.77409 23.8346 4.99984H16.1654Z" fill="#0F0005"/>
</svg>
