<svg width="85" height="20" viewBox="0 0 85 20" fill="none" xmlns="http://www.w3.org/2000/svg">
<path d="M0.405396 16.0108H4.52629V3.93524C4.52629 1.76189 2.68128 0 0.405396 0V16.0108Z" fill="#0F0005"/>
<path d="M9.46435 3.88533C8.77821 3.88533 8.11098 4.09578 7.57071 4.48162L5.50553 5.95885H8.40407V16.0121H12.525V6.66577C12.525 5.13052 11.154 3.88533 9.46435 3.88533Z" fill="#0F0005"/>
<path d="M18.4733 7.98651C19.6282 7.98651 20.5642 7.06779 20.5642 5.93592C20.5642 4.80405 19.6282 3.88533 18.4733 3.88533C17.3185 3.88533 16.3825 4.80405 16.3825 5.93592C16.3825 7.06779 17.3185 7.98651 18.4733 7.98651Z" fill="#0F0005"/>
<path d="M21.3422 9.44486C20.7127 9.19258 19.9982 9.04958 19.2405 9.04958C16.7215 9.04958 14.6779 10.6186 14.6779 12.5545C14.6779 14.4904 16.7202 16.0594 19.2405 16.0594C19.9982 16.0594 20.7141 15.9164 21.3422 15.6654C19.8807 15.0813 18.8826 13.9076 18.8826 12.5545C18.8826 11.2014 19.8807 10.0277 21.3422 9.44486Z" fill="#0F0005"/>
<path d="M26.0965 6.66307C26.0965 5.12917 24.7256 3.88533 23.0359 3.88533C22.6712 3.88533 22.3133 3.94604 21.9756 4.05936V13.2452C21.9756 14.7791 23.3466 16.0229 25.0362 16.0229C25.7237 16.0229 26.3896 15.8138 26.9299 15.428L28.9005 14.0209L26.0965 14.0236V6.66307Z" fill="#0F0005"/>
<path d="M28.263 4.04722L35.0312 16.0243L37.3409 11.9379L32.8917 4.04722H28.263Z" fill="#0F0005"/>
<path d="M38.5848 3.88533C37.43 3.88533 36.494 4.80405 36.494 5.93592C36.494 7.06779 37.43 7.98651 38.5848 7.98651C39.7397 7.98651 40.6757 7.06779 40.6757 5.93592C40.6757 4.80405 39.7397 3.88533 38.5848 3.88533Z" fill="#0F0005"/>
<path d="M32.3663 16.0526C31.2547 16.0526 30.3552 16.9363 30.3552 18.0263C30.3552 19.1164 31.2561 20 32.3663 20C33.4766 20 34.3775 19.1164 34.3775 18.0263C34.3775 16.9363 33.4766 16.0526 32.3663 16.0526Z" fill="#0F0005"/>
<path d="M44.7297 2.26323C44.7297 0.234267 45.8916 0 46.2161 0H47.7873V7.32959C47.9825 6.28616 48.3286 5.46892 48.8281 4.88056C49.3276 4.2922 49.9994 3.99735 50.8422 3.99735C52.1011 3.99735 53.0058 4.44972 53.5565 5.35179C54.1071 6.2552 54.3831 7.57732 54.3831 9.31682V14.3845C54.3831 14.8813 54.3024 15.2718 54.1395 15.5532C53.9765 15.8346 53.7531 15.9759 53.4676 15.9759H51.4629V8.84559C51.4629 8.233 51.444 7.67291 51.405 7.16803C51.366 6.66314 51.2946 6.23231 51.1909 5.87552C51.0873 5.51874 50.9405 5.24139 50.7534 5.04212C50.5649 4.84286 50.3225 4.74323 50.0236 4.74323C49.6992 4.74323 49.4003 4.87652 49.1283 5.14175C48.8563 5.40699 48.6194 5.76781 48.4174 6.22288C48.2155 6.6793 48.0606 7.20438 47.9502 7.80216C47.8398 8.3986 47.7846 9.02062 47.7846 9.66688V14.6848C47.7846 15.0819 47.7038 15.397 47.5409 15.6299C47.378 15.8615 47.1545 15.9773 46.8691 15.9773H44.7297V2.26323Z" fill="#0F0005"/>
<path d="M61.9941 9.68303C62.1893 9.20642 62.3146 8.76347 62.3738 8.35552C62.4317 7.94623 62.4546 7.54501 62.4425 7.15053C62.429 6.75604 62.4034 6.35348 62.3644 5.94553C62.3253 5.53758 62.293 5.1081 62.2674 4.65841C62.254 4.45376 62.3065 4.29355 62.4236 4.17776C62.5408 4.06197 62.67 4.00408 62.8127 4.00408H64.6613L60.9049 13.4017C60.8013 13.6467 60.6814 13.9631 60.5454 14.3509C60.4095 14.7386 60.2533 15.1506 60.0783 15.5868C59.9032 16.023 59.708 16.4647 59.4939 16.9143C59.2799 17.364 59.0362 17.7652 58.7642 18.1193C58.4922 18.4734 58.1866 18.7629 57.85 18.9877C57.5121 19.2126 57.1365 19.3243 56.7218 19.3243C56.2155 19.3243 55.8009 19.1574 55.4764 18.8235C55.1519 18.4896 54.9904 18.0641 54.9904 17.5471C54.9904 17.1661 55.0482 16.7918 55.1654 16.4243C55.2825 16.0567 55.4697 15.7188 55.7295 15.4131C55.9894 15.1075 56.3259 14.845 56.742 14.6269C57.1567 14.4088 57.6696 14.2459 58.2795 14.1368C58.0331 14.0143 57.8446 13.7625 57.7154 13.3815L54.4074 4.00543H57.4232L60.6343 13.1163L60.7514 12.851C60.7514 12.8241 60.7636 12.7837 60.7905 12.7285L61.9968 9.68438L61.9941 9.68303ZM59.7942 14.2189C58.7696 14.2324 57.99 14.3818 57.4582 14.6686C56.9264 14.9554 56.6598 15.3701 56.6598 15.9153C56.6854 16.6639 57.0557 17.0396 57.7692 17.0396C58.0291 17.0396 58.2755 16.9547 58.5084 16.7837C58.7413 16.6128 58.9594 16.396 59.16 16.1294C59.3606 15.8642 59.5491 15.5612 59.7242 15.2206C59.8992 14.88 60.0581 14.5461 60.2008 14.2203H59.7915L59.7942 14.2189Z" fill="#0F0005"/>
<path d="M69.4476 15.9773C69.1622 15.9773 68.9414 15.9019 68.7865 15.7497C68.6303 15.5976 68.5011 15.3472 68.3974 14.9958L65.0894 4.00543H68.1053L71.3163 14.6848L72.6789 10.6618C72.8741 10.1031 72.9993 9.58475 73.0585 9.10544C73.1164 8.62614 73.1393 8.15626 73.1272 7.69311C73.1137 7.22996 73.0881 6.75873 73.0491 6.28078C73.0101 5.80147 72.9777 5.29928 72.9522 4.77285C72.9387 4.5332 72.9912 4.34605 73.1083 4.21007C73.2255 4.07409 73.3547 4.00677 73.4974 4.00677H75.346L71.2598 15.98H69.4503L69.4476 15.9773Z" fill="#0F0005"/>
<path d="M79.9559 15.9934C79.0606 15.9934 78.2757 15.8346 77.6011 15.5155C76.9266 15.1977 76.3652 14.7629 75.9182 14.2135C75.4712 13.6642 75.136 13.0193 74.9165 12.2788C74.6957 11.5383 74.5853 10.7467 74.5853 9.90249C74.5853 9.05832 74.7145 8.2707 74.9744 7.53828C75.2342 6.80586 75.587 6.16499 76.0353 5.61567C76.4823 5.06636 77.0087 4.63283 77.6119 4.31374C78.2151 3.996 78.86 3.83578 79.548 3.83578C80.0933 3.83578 80.6089 3.93541 81.095 4.13468C81.581 4.33394 82.0024 4.60052 82.3605 4.93442C82.7173 5.26831 83.0001 5.64664 83.2074 6.0694C83.4147 6.49081 83.5184 6.93376 83.5184 7.39422C83.5184 7.60156 83.5022 7.78062 83.4699 7.93142C83.4376 8.08355 83.408 8.20607 83.3824 8.30166H83.8294V8.6598H81.5137C82.2017 8.93042 82.7012 9.36125 83.0122 9.94961C83.3232 10.538 83.4794 11.2556 83.4794 12.0998C83.4794 12.6895 83.3851 13.2267 83.1966 13.7113C83.0081 14.1974 82.7523 14.6067 82.4279 14.9419C82.1034 15.2758 81.7277 15.5357 81.2996 15.7174C80.8715 15.9005 80.4245 15.9921 79.9573 15.9921L79.9559 15.9934ZM77.5433 8.66114C77.5298 8.85233 77.5204 9.04755 77.5136 9.24681C77.5069 9.44607 77.5042 9.64937 77.5042 9.85537C77.5042 11.7026 77.7533 13.1082 78.2528 14.0708C78.7523 15.0348 79.4686 15.5155 80.4029 15.5155C80.7395 15.5155 81.0748 15.432 81.4046 15.265C81.7358 15.0981 82.0334 14.8584 82.2999 14.5488C82.5652 14.2378 82.7793 13.8675 82.9422 13.438C83.1037 13.0085 83.1859 12.5306 83.1859 12.0055C83.1859 10.9069 82.8573 10.0748 82.203 9.50935C81.5473 8.94388 80.6103 8.66114 79.3905 8.66114H77.5419H77.5433ZM80.5201 8.30301C80.6103 8.1603 80.7018 7.93276 80.792 7.6231C80.8822 7.31209 80.928 6.9028 80.928 6.39252C80.928 5.81897 80.792 5.33025 80.5187 4.92364C80.2467 4.51704 79.9223 4.31509 79.5453 4.31509C79.2464 4.31509 78.9839 4.41472 78.7577 4.61398C78.5301 4.81324 78.3363 5.0879 78.1734 5.43795C78.0104 5.78801 77.8785 6.21077 77.7748 6.70353C77.6712 7.19765 77.5998 7.73081 77.5608 8.30436H80.5187L80.5201 8.30301Z" fill="#0F0005"/>
</svg>
