<svg width="1440" height="758" viewBox="0 0 1440 758" fill="none" xmlns="http://www.w3.org/2000/svg">
<path d="M485.767 758C495.782 758 505.836 757.723 515.911 757.15C556.108 754.875 595.497 748.112 633.014 737.038C671.24 725.766 706.39 710.341 737.5 691.218C770.265 671.066 797.806 647.217 819.353 620.322C897.738 522.532 919.542 425.987 938.802 340.814C950.907 287.202 962.361 236.576 986.866 194.474C1013.44 148.792 1053.8 115.905 1113.89 90.9683C1141.05 79.6962 1168.71 72.8933 1196.13 70.7378C1220.99 68.78 1246.31 70.5994 1271.36 76.1563C1314.2 85.6486 1357.24 106.077 1399.29 136.907C1472.47 190.558 1517.46 257.657 1517.91 258.329C1524.93 268.909 1539.18 271.777 1549.75 264.737C1560.3 257.697 1563.17 243.419 1556.18 232.819C1554.2 229.833 1506.93 159.076 1427.52 100.52C1380.21 65.6357 1331.28 42.34 1282.05 31.325C1219.73 17.3634 1157.26 23.0983 1096.34 48.3913C1059.83 63.5395 1029.8 81.3375 1004.51 102.774C981.307 122.451 962.578 144.837 947.221 171.257C919.167 219.49 906.964 273.478 894.051 330.629C884.667 372.138 874.968 415.051 858.526 458.973C840.073 508.234 815.568 551.582 783.592 591.469C765.356 614.231 741.778 634.58 713.527 651.963C685.887 668.97 654.443 682.734 620.101 692.859C551.101 713.208 474.313 717.42 403.874 704.744C374.894 699.523 347.235 691.514 321.646 680.934C295.13 669.959 270.822 656.215 249.353 640.038C202.985 605.095 170.18 559.413 151.846 504.259C145.143 484.088 139.682 464.095 135.464 444.438C160.54 442.005 184.414 437.338 206.889 430.456C243.991 419.085 276.756 401.9 304.277 379.376C329.827 358.453 349.837 333.872 363.716 306.305C372.114 289.634 377.95 272.37 381.084 254.967C384.219 237.506 384.554 220.301 382.09 203.848C379.527 186.84 374.026 171.04 365.747 156.92C357.092 142.167 345.599 129.59 331.601 119.564C281.901 83.9479 222.423 84.7587 172.507 121.739C130.022 153.222 99.3864 207.051 86.2369 273.339C78.4104 312.752 77.0106 355.507 81.8604 400.16C79.6918 400.101 77.5034 400.022 75.3152 399.923C26.9559 397.827 -25.6222 387.603 -80.9011 369.508C-180.656 336.878 -257.463 309.35 -322.599 282.891C-387.439 256.55 -441.22 231.039 -491.886 202.621C-591.088 146.973 -673.238 82.7416 -797.556 -14.4951L-800.908 -17.1253C-810.903 -24.9564 -825.333 -23.1569 -833.14 -13.1306C-840.947 -3.10439 -839.153 11.3714 -829.158 19.2025L-825.807 21.8327C-575.119 217.888 -490.663 283.939 -95.1545 413.311C-35.8933 432.691 20.7853 443.667 73.324 445.941C78.5876 446.158 83.812 446.316 88.9772 446.356C93.7283 470.186 100.155 494.391 108.278 518.794C119.16 551.523 134.675 581.799 154.409 608.793C173.098 634.363 195.77 657.243 221.773 676.841C246.317 695.331 274.036 711.033 304.12 723.472C332.725 735.298 363.539 744.236 395.732 750.05C425.067 755.33 455.25 758 485.787 758H485.767ZM253.887 139.498C271.453 139.498 288.604 145.391 304.849 157.039C322.217 169.497 333.218 188.047 336.628 210.71C340.157 234.104 335.189 260.663 322.691 285.521C311.887 306.977 295.465 327.089 275.218 343.661C252.35 362.389 224.828 376.766 193.463 386.357C173 392.626 151.058 396.798 127.874 398.835C123.024 357.524 124.108 318.23 131.245 282.297C136.883 253.9 146.09 228.429 158.648 206.616C170.22 186.504 184.04 170.407 199.752 158.759C216.095 146.656 234.075 139.992 251.719 139.498C252.448 139.478 253.178 139.458 253.907 139.458L253.887 139.498Z" fill="url(#paint0_linear_4_1385)"/>
<path d="M485.767 758C495.782 758 505.836 757.723 515.911 757.15C556.108 754.875 595.497 748.112 633.014 737.038C671.24 725.766 706.39 710.341 737.5 691.218C770.265 671.066 797.806 647.217 819.353 620.322C897.738 522.532 919.542 425.987 938.802 340.814C950.907 287.202 962.361 236.576 986.866 194.474C1013.44 148.792 1053.8 115.905 1113.89 90.9683C1141.05 79.6962 1168.71 72.8933 1196.13 70.7378C1220.99 68.78 1246.31 70.5994 1271.36 76.1563C1314.2 85.6486 1357.24 106.077 1399.29 136.907C1472.47 190.558 1517.46 257.657 1517.91 258.329C1524.93 268.909 1539.18 271.777 1549.75 264.737C1560.3 257.697 1563.17 243.419 1556.18 232.819C1554.2 229.833 1506.93 159.076 1427.52 100.52C1380.21 65.6357 1331.28 42.34 1282.05 31.325C1219.73 17.3634 1157.26 23.0983 1096.34 48.3913C1059.83 63.5395 1029.8 81.3375 1004.51 102.774C981.307 122.451 962.578 144.837 947.221 171.257C919.167 219.49 906.964 273.478 894.051 330.629C884.667 372.138 874.968 415.051 858.526 458.973C840.073 508.234 815.568 551.582 783.592 591.469C765.356 614.231 741.778 634.58 713.527 651.963C685.887 668.97 654.443 682.734 620.101 692.859C551.101 713.208 474.313 717.42 403.874 704.744C374.894 699.523 347.235 691.514 321.646 680.934C295.13 669.959 270.822 656.215 249.353 640.038C202.985 605.095 170.18 559.413 151.846 504.259C145.143 484.088 139.682 464.095 135.464 444.438C160.54 442.005 184.414 437.338 206.889 430.456C243.991 419.085 276.756 401.9 304.277 379.376C329.827 358.453 349.837 333.872 363.716 306.305C372.114 289.634 377.95 272.37 381.084 254.967C384.219 237.506 384.554 220.301 382.09 203.848C379.527 186.84 374.026 171.04 365.747 156.92C357.092 142.167 345.599 129.59 331.601 119.564C281.901 83.9479 222.423 84.7587 172.507 121.739C130.022 153.222 99.3864 207.051 86.2369 273.339C78.4104 312.752 77.0106 355.507 81.8604 400.16C79.6918 400.101 77.5034 400.022 75.3152 399.923C26.9559 397.827 -25.6222 387.603 -80.9011 369.508C-180.656 336.878 -257.463 309.35 -322.599 282.891C-387.439 256.55 -441.22 231.039 -491.886 202.621C-591.088 146.973 -673.238 82.7416 -797.556 -14.4951L-800.908 -17.1253C-810.903 -24.9564 -825.333 -23.1569 -833.14 -13.1306C-840.947 -3.10439 -839.153 11.3714 -829.158 19.2025L-825.807 21.8327C-575.119 217.888 -490.663 283.939 -95.1545 413.311C-35.8933 432.691 20.7853 443.667 73.324 445.941C78.5876 446.158 83.812 446.316 88.9772 446.356C93.7283 470.186 100.155 494.391 108.278 518.794C119.16 551.523 134.675 581.799 154.409 608.793C173.098 634.363 195.77 657.243 221.773 676.841C246.317 695.331 274.036 711.033 304.12 723.472C332.725 735.298 363.539 744.236 395.732 750.05C425.067 755.33 455.25 758 485.787 758H485.767ZM253.887 139.498C271.453 139.498 288.604 145.391 304.849 157.039C322.217 169.497 333.218 188.047 336.628 210.71C340.157 234.104 335.189 260.663 322.691 285.521C311.887 306.977 295.465 327.089 275.218 343.661C252.35 362.389 224.828 376.766 193.463 386.357C173 392.626 151.058 396.798 127.874 398.835C123.024 357.524 124.108 318.23 131.245 282.297C136.883 253.9 146.09 228.429 158.648 206.616C170.22 186.504 184.04 170.407 199.752 158.759C216.095 146.656 234.075 139.992 251.719 139.498C252.448 139.478 253.178 139.458 253.907 139.458L253.887 139.498Z" fill="url(#paint1_linear_4_1385)"/>
<defs>
<linearGradient id="paint0_linear_4_1385" x1="1560" y1="368" x2="-838" y2="368" gradientUnits="userSpaceOnUse">
<stop stop-color="#FFBD1A"/>
<stop offset="1" stop-color="#FF6700"/>
</linearGradient>
<linearGradient id="paint1_linear_4_1385" x1="1560" y1="368" x2="-838" y2="368" gradientUnits="userSpaceOnUse">
<stop stop-color="#4FA3CC"/>
<stop offset="0.727072" stop-color="#CC0044"/>
</linearGradient>
</defs>
</svg>
