<svg width="1440" height="762" viewBox="0 0 1440 762" fill="none" xmlns="http://www.w3.org/2000/svg">
<path d="M831.005 0.78907C840.151 0.408799 849.345 0.2795 858.567 0.42003C895.366 0.967843 931.597 5.64058 966.281 14.3162C1001.62 23.1453 1034.31 35.8787 1063.45 52.1382C1094.13 69.2728 1120.19 89.9785 1140.89 113.689C1216.19 199.901 1239.76 287.125 1260.58 364.075C1273.67 412.511 1286.05 458.248 1310.03 495.716C1336.03 536.37 1374.14 564.832 1429.96 585.294C1455.2 594.543 1480.72 599.697 1505.85 600.622C1528.62 601.463 1551.67 598.843 1574.35 592.823C1613.11 582.539 1651.64 562.274 1688.88 532.559C1753.68 480.849 1792.23 417.944 1792.61 417.314C1798.62 407.398 1811.53 404.242 1821.45 410.261C1831.35 416.282 1834.52 429.194 1828.53 439.127C1826.84 441.926 1786.35 508.254 1716.04 564.673C1674.15 598.286 1630.35 621.39 1585.81 633.305C1529.42 648.405 1472.15 645.547 1415.55 624.792C1381.63 612.362 1353.53 597.27 1329.62 578.679C1307.68 561.615 1289.73 541.909 1274.7 518.396C1247.25 475.471 1234.06 426.696 1220.1 375.063C1209.95 337.561 1199.47 298.791 1182.79 259.358C1164.07 215.131 1140.04 176.526 1109.32 141.362C1091.81 121.295 1069.5 103.631 1043.04 88.85C1017.15 74.3886 987.911 63.0295 956.162 55.099C892.373 39.1599 822.083 38.2339 758.231 52.4696C731.961 58.3315 707.003 66.6863 684.034 77.3072C660.233 88.324 638.554 101.782 619.559 117.351C578.536 150.981 550.307 193.89 535.654 244.888C530.297 263.54 526.068 281.981 522.96 300.069C545.955 301.336 567.936 304.686 588.723 310.109C623.04 319.071 653.616 333.5 679.605 352.998C703.733 371.11 722.941 392.769 736.662 417.384C744.964 432.269 750.948 447.793 754.471 463.546C757.996 479.353 758.954 495.031 757.328 510.131C755.632 525.739 751.207 540.359 744.181 553.551C736.836 567.334 726.816 579.242 714.412 588.917C670.371 623.287 616.019 624.806 569.028 592.974C529.033 565.874 499.012 517.943 484.489 457.986C475.846 422.337 472.946 383.397 475.683 342.487C473.704 342.624 471.709 342.779 469.714 342.952C425.627 346.7 377.994 358.021 328.194 376.623C238.325 410.17 169.22 438.193 110.734 464.798C52.514 491.284 4.36295 516.593 -40.8329 544.435C-129.325 598.955 -201.917 660.655 -311.771 754.058L-314.732 756.584C-323.564 764.106 -336.812 763.013 -344.322 754.165C-351.832 745.317 -350.743 732.047 -341.911 724.525L-338.95 721.999C-117.43 533.671 -42.7999 470.224 313.515 337.215C366.904 317.289 418.253 305.127 466.15 301.058C470.949 300.66 475.715 300.317 480.431 300.085C483.867 278.171 488.818 255.851 495.311 233.286C504.009 203.023 517.031 174.821 534.031 149.453C550.13 125.422 569.969 103.694 592.975 84.8329C614.69 67.0373 639.41 51.6641 666.414 39.1772C692.091 27.3055 719.895 17.9832 749.077 11.4582C775.668 5.52874 803.133 1.94785 831.023 0.788319L831.005 0.78907ZM642.68 573.688C658.722 573.021 674.163 566.995 688.558 555.755C703.948 543.733 713.292 526.397 715.547 505.599C717.883 484.128 712.339 460.094 699.981 437.898C689.301 418.739 673.54 401.02 654.42 386.674C632.824 370.463 607.143 358.395 578.133 350.839C559.206 345.898 539.008 342.926 517.757 341.949C514.894 379.81 517.374 415.606 525.255 448.107C531.481 473.792 540.855 496.673 553.152 516.09C564.483 533.993 577.715 548.15 592.507 558.176C607.892 568.594 624.566 573.989 640.699 573.77C641.366 573.761 642.033 573.751 642.699 573.723L642.68 573.688Z" fill="url(#paint0_linear_124_1989)"/>
<defs>
<linearGradient id="paint0_linear_124_1989" x1="1826.9" y1="315.693" x2="-363.212" y2="406.746" gradientUnits="userSpaceOnUse">
<stop stop-color="#FFBD1A"/>
<stop offset="1" stop-color="#FF6700"/>
</linearGradient>
</defs>
</svg>
