<svg width="360" height="712" viewBox="0 0 360 712" fill="none" xmlns="http://www.w3.org/2000/svg">
<path d="M239.049 712C248.204 712 257.394 711.747 266.603 711.224C303.347 709.148 339.353 702.974 373.646 692.865C408.589 682.576 440.72 668.496 469.156 651.04C499.107 632.645 524.282 610.875 543.979 586.325C615.629 497.06 635.56 408.932 653.166 331.184C664.231 282.246 674.701 236.034 697.101 197.602C721.393 155.903 758.282 125.883 813.209 103.12C838.041 92.8303 863.325 86.6206 888.391 84.653C911.116 82.8659 934.254 84.5266 957.159 89.5991C996.318 98.2639 1035.66 116.911 1074.1 145.054C1140.99 194.028 1182.11 255.277 1182.53 255.89C1188.94 265.548 1201.97 268.165 1211.63 261.739C1221.27 255.313 1223.9 242.279 1217.5 232.604C1215.7 229.878 1172.49 165.289 1099.9 111.839C1056.65 79.9956 1011.92 58.7309 966.926 48.6761C909.962 35.9317 852.854 41.1667 797.17 64.2547C763.796 78.0822 736.35 94.3286 713.23 113.897C692.019 131.858 674.899 152.292 660.861 176.409C635.218 220.437 624.063 269.718 612.259 321.887C603.681 359.777 594.815 398.949 579.786 439.042C562.918 484.008 540.519 523.577 511.289 559.988C494.62 580.765 473.067 599.34 447.243 615.207C421.978 630.732 393.235 643.296 361.843 652.538C298.77 671.113 228.579 674.958 164.191 663.387C137.7 658.621 112.417 651.311 89.0264 641.653C64.7885 631.634 42.5688 619.088 22.9442 604.322C-19.4406 572.425 -49.4271 530.726 -66.1865 480.38C-72.3136 461.967 -77.3053 443.717 -81.1617 425.774C-58.2394 423.554 -36.4163 419.293 -15.8726 413.011C18.0425 402.632 47.993 386.945 73.15 366.384C96.505 347.286 114.796 324.848 127.483 299.684C135.16 284.466 140.494 268.707 143.359 252.822C146.224 236.882 146.531 221.177 144.278 206.158C141.935 190.634 136.907 176.211 129.339 163.322C121.428 149.855 110.922 138.374 98.1268 129.222C52.6965 96.7114 -1.67224 97.4515 -47.3008 131.208C-86.1355 159.946 -114.14 209.083 -126.16 269.592C-133.314 305.568 -134.593 344.596 -130.16 385.356C-132.142 385.302 -134.143 385.23 -136.143 385.14C-180.348 383.226 -228.409 373.894 -278.94 357.376C-370.125 327.591 -440.333 302.464 -499.874 278.31C-559.144 254.266 -608.305 230.979 -654.619 205.039C-745.299 154.242 -820.391 95.6103 -934.03 6.85059L-937.094 4.44972C-946.23 -2.69871 -959.422 -1.05601 -966.558 8.09615C-973.694 17.2483 -972.054 30.4621 -962.918 37.6105L-959.854 40.0114C-730.702 218.975 -653.501 279.267 -291.969 397.361C-237.798 415.051 -185.989 425.07 -137.963 427.146C-133.152 427.344 -128.376 427.489 -123.655 427.525C-119.312 449.277 -113.437 471.372 -106.012 493.648C-96.0648 523.523 -81.8826 551.16 -63.8438 575.801C-46.7601 599.141 -26.0361 620.027 -2.26672 637.916C20.1691 654.795 45.5062 669.128 73.0059 680.482C99.1541 691.277 127.321 699.436 156.748 704.743C183.563 709.563 211.153 712 239.067 712H239.049ZM27.089 147.418C43.1455 147.418 58.8235 152.798 73.6726 163.43C89.549 174.803 99.6045 191.735 102.722 212.422C105.948 233.777 101.407 258.02 89.9816 280.711C80.1061 300.297 65.0948 318.656 46.5875 333.783C25.6833 350.878 0.526367 364.001 -28.1447 372.756C-46.8502 378.479 -66.9072 382.288 -88.0997 384.147C-92.5328 346.437 -91.5417 310.569 -85.0182 277.769C-79.8643 251.847 -71.4485 228.596 -59.9692 208.685C-49.3911 190.327 -36.7585 175.633 -22.396 165.001C-7.45679 153.953 8.97815 147.87 25.1068 147.418C25.7736 147.4 26.4403 147.382 27.1071 147.382L27.089 147.418Z" fill="url(#paint0_linear_560_9824)"/>
<defs>
<linearGradient id="paint0_linear_560_9824" x1="1221" y1="356" x2="-971" y2="356" gradientUnits="userSpaceOnUse">
<stop stop-color="#FFBD1A"/>
<stop offset="1" stop-color="#FF6700"/>
</linearGradient>
</defs>
</svg>
