<svg width="1238" height="743" viewBox="0 0 1238 743" fill="none" xmlns="http://www.w3.org/2000/svg">
<path d="M516.92 721.529C522.609 723.677 528.379 725.678 534.224 727.514C557.543 734.849 581.362 739.47 605.04 741.249C629.163 743.068 652.427 741.876 674.186 737.724C697.105 733.345 717.847 725.752 735.837 715.149C801.267 676.604 834.293 626.627 863.443 582.542C881.78 554.789 899.11 528.586 922.03 510.009C946.892 489.849 976.845 479.889 1016.31 478.662C1034.15 478.108 1051.31 480.19 1067.35 484.853C1081.89 489.077 1095.88 495.537 1108.92 504.058C1131.23 518.621 1151.31 539.418 1168.6 565.892C1198.7 611.962 1209.91 659.597 1210.02 660.075C1211.74 667.57 1219.23 672.251 1226.73 670.532C1234.23 668.809 1238.92 661.344 1237.21 653.842C1236.73 651.729 1225 601.532 1192.42 551.349C1173 521.451 1150.19 497.767 1124.58 480.971C1092.17 459.699 1055.45 449.544 1015.44 450.795C991.467 451.538 970.607 455.173 951.657 461.883C934.27 468.044 918.846 476.699 904.474 488.361C878.228 509.648 859.754 537.593 840.201 567.176C825.996 588.662 811.312 610.874 792.583 632.212C771.57 656.14 748.383 675.423 721.692 691.144C706.468 700.117 688.724 706.579 668.961 710.359C649.625 714.058 628.822 715.104 607.15 713.469C563.607 710.187 519.09 696.1 481.789 673.814C466.444 664.641 452.446 654.174 440.173 642.695C427.458 630.794 416.589 617.799 407.853 604.036C388.986 574.308 380.119 541.41 381.496 506.254C382.001 493.397 383.174 480.908 384.98 468.875C399.744 472.877 414.302 475.357 428.539 476.282C452.045 477.804 474.33 475.104 494.778 468.256C513.764 461.893 530.385 452.27 544.163 439.641C552.497 432.006 559.503 423.484 565.004 414.305C570.517 405.092 574.386 395.424 576.504 385.581C578.684 375.404 578.938 365.279 577.253 355.51C575.492 345.302 571.652 335.716 565.845 327.038C545.229 296.214 511.271 283.914 475.012 294.141C444.149 302.85 415.239 326.751 393.598 361.456C380.726 382.088 370.79 405.992 363.999 432.311C362.779 431.812 361.553 431.298 360.331 430.772C333.311 419.212 305.632 402.145 278.101 380.043C228.415 340.173 190.672 308.113 159.331 279.161C128.132 250.34 103.038 224.362 80.3344 197.406C35.8832 144.622 2.95322 90.6386 -46.873 8.9243L-48.2144 6.71642C-52.2176 0.139042 -60.7993 -1.93783 -67.3772 2.06335C-73.9552 6.06454 -76.031 14.6441 -72.0278 21.2215L-70.6865 23.4294C29.7923 188.193 63.6436 243.702 260.64 401.783C290.158 425.466 320.006 443.838 349.362 456.396C352.306 457.648 355.239 458.858 358.165 459.989C355.769 474.498 354.244 489.579 353.641 505.136C352.825 525.999 355.165 546.467 360.603 565.981C365.752 584.465 373.738 602.281 384.319 618.954C394.307 634.686 406.694 649.521 421.123 663.016C434.843 675.847 450.435 687.517 467.478 697.715C483.012 706.997 499.586 714.983 516.931 721.533L516.92 721.529ZM517.441 321.651C527.418 325.419 535.9 332.435 542.637 342.513C549.839 353.292 552.122 366.153 549.214 379.714C546.217 393.715 537.717 407.684 525.303 419.075C514.579 428.904 500.951 436.766 485.908 441.805C468.914 447.501 450.208 449.736 430.342 448.437C417.378 447.596 404.022 445.251 390.418 441.431C396.495 417.004 405.512 394.992 417.248 376.182C426.522 361.315 437.197 348.871 448.993 339.217C459.866 330.314 471.158 324.166 482.573 320.942C494.443 317.597 506.081 317.681 516.209 321.186C516.627 321.331 517.046 321.477 517.46 321.633L517.441 321.651Z" fill="url(#paint0_linear_229_9344)"/>
<defs>
<linearGradient id="paint0_linear_229_9344" x1="1210.48" y1="731.189" x2="-151.621" y2="216.78" gradientUnits="userSpaceOnUse">
<stop stop-color="#FFBD1A"/>
<stop offset="1" stop-color="#FF6700"/>
</linearGradient>
</defs>
</svg>
