<svg width="328" height="321" viewBox="0 0 328 321" fill="none" xmlns="http://www.w3.org/2000/svg">
<path d="M2.1857 544.846C-5.82443 546.708 -13.9176 548.356 -22.0817 549.77C-54.6554 555.425 -87.4171 557.34 -119.482 555.459C-152.152 553.552 -183.133 547.753 -211.57 538.244C-241.522 528.222 -267.983 514.271 -290.217 496.77C-371.088 433.144 -406.473 359.996 -437.71 295.467C-457.357 254.846 -475.929 216.492 -503.354 187.381C-533.101 155.792 -571.491 136.996 -624.187 128.227C-648.011 124.264 -671.398 123.966 -693.732 127.341C-713.979 130.397 -733.887 136.558 -752.896 145.661C-785.395 161.216 -816.02 185.553 -843.922 218.024C-892.48 274.533 -915.99 336.553 -916.228 337.175C-919.875 346.94 -930.742 351.883 -940.503 348.218C-950.247 344.549 -955.203 333.667 -951.576 323.889C-950.554 321.135 -925.895 255.764 -873.265 194.176C-841.906 157.484 -807.1 129.758 -769.775 111.797C-722.528 89.0469 -671.493 82.0177 -618.068 90.9178C-586.05 96.243 -558.727 104.893 -534.512 117.333C-512.295 128.753 -493.155 143.173 -475.96 161.445C-444.557 194.799 -424.761 235.701 -403.81 279.002C-388.589 310.451 -372.854 342.963 -351.539 375.029C-327.624 410.99 -299.967 441.098 -266.977 467.049C-248.16 481.861 -225.519 493.749 -199.692 502.397C-174.424 510.858 -146.716 516.019 -117.366 517.73C-58.3955 521.174 3.80392 510.266 57.7868 487.034C79.9954 477.471 100.629 465.924 119.13 452.706C138.297 439 155.185 423.49 169.349 406.563C199.94 369.999 217.687 327.37 222.099 279.857C223.711 262.481 224.362 245.478 224.083 228.975C203.574 231.692 183.611 232.398 164.356 231.074C132.567 228.879 103.166 221.228 76.9674 208.333C52.6429 196.352 32.0692 180.416 15.8443 160.952C6.02835 149.183 -1.84809 136.462 -7.58995 123.129C-13.3429 109.748 -16.809 96.0523 -17.8963 82.4371C-19.0078 68.3607 -17.5455 54.7029 -13.5475 41.8725C-9.36754 28.4664 -2.5127 16.272 6.81892 5.65206C39.9498 -32.0687 87.6726 -42.4784 134.471 -22.1871C174.303 -4.91029 208.813 32.439 231.652 83.0019C245.237 113.064 254.304 146.993 258.726 183.602C260.449 183.151 262.185 182.681 263.916 182.195C302.206 171.528 342.359 153.577 383.209 128.83C456.93 84.1911 513.245 47.8985 560.424 14.6296C607.389 -18.4894 645.662 -48.888 680.904 -81.0321C749.905 -143.976 803.67 -210.612 885.029 -311.481L887.221 -314.208C893.76 -322.328 905.636 -323.572 913.744 -317.006C921.852 -310.44 923.108 -298.531 916.569 -290.41L914.378 -287.684C750.314 -84.2986 695.041 -15.7787 402.751 161.208C358.955 187.723 315.662 207.037 274.063 218.624C269.893 219.776 265.744 220.874 261.62 221.866C262.25 241.805 261.608 262.356 259.648 283.38C257.028 311.575 250.246 338.67 239.48 363.925C229.285 387.847 215.405 410.359 198.249 430.865C182.055 450.214 162.804 467.923 141.054 483.463C120.373 498.238 97.389 511.115 72.7205 521.749C50.2392 531.426 26.5946 539.172 2.16989 544.849L2.1857 544.846ZM72.6818 7.14384C58.6324 10.4096 46.0097 18.3109 35.182 30.6454C23.6062 43.8371 18.2556 60.7156 19.7403 79.4723C21.2664 98.8361 30.1766 119.15 44.7942 136.704C57.4234 151.854 74.2966 164.883 93.5708 174.371C115.343 185.095 140.027 191.475 166.897 193.313C184.429 194.521 202.755 193.779 221.677 191.097C217.877 157.16 209.706 125.94 197.318 98.5334C187.53 76.8731 175.432 58.2166 161.333 43.1088C148.339 29.1777 134.293 18.8747 119.561 12.4816C104.24 5.84211 88.6205 3.8556 74.4162 6.74068C73.8291 6.86049 73.2421 6.98027 72.6586 7.11589L72.6818 7.14384Z" fill="url(#paint0_linear_560_10143)"/>
<defs>
<linearGradient id="paint0_linear_560_10143" x1="-929.507" y1="432.699" x2="988.476" y2="-13.1349" gradientUnits="userSpaceOnUse">
<stop stop-color="#4FA3CC"/>
<stop offset="0.727072" stop-color="#CC0044"/>
</linearGradient>
</defs>
</svg>
