<svg width="360" height="762" viewBox="0 0 360 762" fill="none" xmlns="http://www.w3.org/2000/svg">
<path d="M291.005 0.78907C300.151 0.408799 309.345 0.2795 318.567 0.42003C355.366 0.967843 391.597 5.64058 426.281 14.3162C461.62 23.1453 494.308 35.8787 523.446 52.1382C554.134 69.2728 580.192 89.9785 600.891 113.689C676.188 199.901 699.763 287.125 720.583 364.075C733.671 412.511 746.052 458.248 770.029 495.716C796.032 536.37 834.136 564.832 889.961 585.294C915.2 594.543 940.719 599.697 965.846 600.622C988.625 601.463 1011.67 598.843 1034.35 592.823C1073.11 582.539 1111.64 562.274 1148.88 532.559C1213.68 480.849 1252.23 417.944 1252.61 417.314C1258.62 407.398 1271.53 404.242 1281.45 410.261C1291.35 416.282 1294.52 429.194 1288.53 439.127C1286.84 441.926 1246.35 508.254 1176.04 564.673C1134.15 598.286 1090.35 621.39 1045.81 633.305C989.422 648.405 932.146 645.547 875.551 624.792C841.631 612.362 813.534 597.27 789.621 578.679C767.682 561.615 749.729 541.909 734.701 518.396C707.25 475.471 694.058 426.696 680.098 375.063C669.953 337.561 659.468 298.791 642.786 259.358C624.065 215.131 600.041 176.526 569.324 141.362C551.806 121.295 529.5 103.631 503.04 88.85C477.152 74.3886 447.911 63.0295 416.162 55.099C352.373 39.1599 282.083 38.2339 218.231 52.4696C191.961 58.3315 167.003 66.6863 144.034 77.3072C120.233 88.324 98.5535 101.782 79.5592 117.351C38.5359 150.981 10.3073 193.89 -4.34618 244.888C-9.70312 263.54 -13.9324 281.981 -17.0402 300.069C5.95462 301.336 27.9359 304.686 48.7228 310.109C83.0397 319.071 113.616 333.5 139.605 352.998C163.733 371.11 182.941 392.769 196.662 417.384C204.964 432.269 210.948 447.793 214.471 463.546C217.996 479.353 218.954 495.031 217.328 510.131C215.632 525.739 211.207 540.359 204.181 553.551C196.836 567.334 186.816 579.242 174.412 588.917C130.371 623.287 76.0189 624.806 29.0275 592.974C-10.9674 565.874 -40.9885 517.943 -55.5115 457.986C-64.1541 422.337 -67.0535 383.397 -64.3174 342.487C-66.2957 342.624 -68.2914 342.779 -70.2862 342.952C-114.373 346.7 -162.006 358.021 -211.806 376.623C-301.675 410.17 -370.78 438.193 -429.266 464.798C-487.486 491.284 -535.637 516.593 -580.833 544.435C-669.325 598.955 -741.917 660.655 -851.771 754.058L-854.732 756.584C-863.564 764.106 -876.812 763.013 -884.322 754.165C-891.832 745.317 -890.743 732.047 -881.911 724.525L-878.95 721.999C-657.43 533.671 -582.8 470.224 -226.485 337.215C-173.096 317.289 -121.747 305.127 -73.8497 301.058C-69.0505 300.66 -64.285 300.317 -59.5692 300.085C-56.1335 278.171 -51.1816 255.851 -44.6887 233.286C-35.9908 203.023 -22.9688 174.821 -5.96911 149.453C10.1303 125.422 29.9688 103.694 52.9745 84.8329C74.6899 67.0373 99.4098 51.6641 126.414 39.1772C152.091 27.3055 179.895 17.9832 209.077 11.4582C235.668 5.52874 263.133 1.94785 291.023 0.788319L291.005 0.78907ZM102.68 573.688C118.722 573.021 134.163 566.995 148.558 555.755C163.948 543.733 173.292 526.397 175.547 505.599C177.883 484.128 172.339 460.094 159.981 437.898C149.301 418.739 133.54 401.02 114.42 386.674C92.8239 370.463 67.1434 358.395 38.1334 350.839C19.2063 345.898 -0.991724 342.926 -22.243 341.949C-25.1059 379.81 -22.6257 415.606 -14.7453 448.107C-8.51907 473.792 0.855242 496.673 13.1517 516.09C24.4834 533.993 37.7153 548.15 52.5071 558.176C67.8923 568.594 84.5659 573.989 100.699 573.77C101.366 573.761 102.033 573.751 102.699 573.723L102.68 573.688Z" fill="url(#paint0_linear_560_9640)"/>
<defs>
<linearGradient id="paint0_linear_560_9640" x1="1286.9" y1="315.693" x2="-903.212" y2="406.746" gradientUnits="userSpaceOnUse">
<stop stop-color="#FFBD1A"/>
<stop offset="1" stop-color="#FF6700"/>
</linearGradient>
</defs>
</svg>
