<svg width="20" height="20" viewBox="0 0 20 20" fill="none" xmlns="http://www.w3.org/2000/svg">
<path d="M9.99874 0V1.53862H15.3303C15.1515 1.4258 14.9686 1.31802 14.7823 1.21629C13.3619 0.440684 11.7319 0 9.99874 0Z" fill="#C60540"/>
<path d="M9.99874 3.07673H17.2151C16.653 2.491 16.0203 1.97426 15.3303 1.53862H9.99874V3.07673Z" fill="white"/>
<path d="M9.99874 4.61535H18.427C18.2859 4.39526 18.1369 4.18071 17.9797 3.9727C17.7818 3.71081 17.5712 3.45899 17.3486 3.21825C17.3048 3.17041 17.2599 3.12357 17.2151 3.07673H9.99874V4.61535Z" fill="#C60540"/>
<path d="M9.99874 6.15396H19.2329C19.0082 5.61557 18.7383 5.10136 18.427 4.61535H9.99874V6.15396Z" fill="white"/>
<path d="M9.99874 7.69207H19.7315C19.6061 7.16174 19.4389 6.64803 19.2329 6.15396H9.99874V7.69207Z" fill="#C60540"/>
<path d="M9.99874 9.23069H19.9708C19.9386 8.80965 19.8806 8.39566 19.798 7.99073C19.7774 7.89051 19.7547 7.79129 19.7315 7.69207H9.99874V9.23069Z" fill="white"/>
<path d="M9.99874 10.7693H19.9708C19.9899 10.5155 20 10.2591 20 10.0003C20 9.74138 19.9899 9.48453 19.9708 9.23069H9.99874V10.7693Z" fill="#C60540"/>
<path d="M0.0271992 10.7693C0.0594354 11.1904 0.11736 11.6043 0.199965 12.0093C0.220616 12.1095 0.242778 12.2087 0.265948 12.3079H19.732C19.7552 12.2087 19.7774 12.1095 19.798 12.0093C19.8806 11.6043 19.9386 11.1904 19.9708 10.7693L0.0271992 10.7693Z" fill="white"/>
<path d="M0.765104 13.846H19.2329C19.4389 13.352 19.6066 12.8383 19.732 12.3079H0.265948C0.391367 12.8383 0.559095 13.352 0.765104 13.846Z" fill="#C60540"/>
<path d="M1.57101 15.3847H18.4275C18.7388 14.8986 19.0082 14.3844 19.2329 13.846H0.765104C0.98975 14.3844 1.25973 14.8986 1.57101 15.3847Z" fill="white"/>
<path d="M2.01828 16.0273C2.21623 16.2892 2.42678 16.541 2.64941 16.7817C2.69323 16.8296 2.73856 16.8764 2.78339 16.9233H17.2156C17.2604 16.8764 17.3048 16.8296 17.3491 16.7817C17.5712 16.541 17.7823 16.2892 17.9802 16.0273C18.1374 15.8193 18.2864 15.6047 18.4275 15.3847H1.57101C1.71204 15.6047 1.86113 15.8193 2.01828 16.0273Z" fill="#C60540"/>
<path d="M2.99292 17.1363C3.20397 17.3433 3.42408 17.5412 3.65276 17.7291C3.97461 17.994 4.3141 18.2383 4.66819 18.4619H15.3308C16.0203 18.0267 16.6535 17.509 17.2156 16.9233H2.78339C2.85239 16.9953 2.9219 17.0663 2.99292 17.1363Z" fill="white"/>
<path d="M5.2152 18.7837C6.63611 19.5593 8.26605 20 9.99925 20C11.7324 20 13.3619 19.5593 14.7833 18.7837C14.9697 18.682 15.1515 18.5752 15.3308 18.4619H4.66819C4.847 18.5747 5.02934 18.682 5.2152 18.7837Z" fill="#C60540"/>
</svg>
