<svg width="184" height="28" viewBox="0 0 184 28" fill="none" xmlns="http://www.w3.org/2000/svg">
<path d="M22.434 7.79455L13.9246 22.5174H20.1133L29.3963 6.45823H24.7548C23.7973 6.45823 22.9117 6.96911 22.434 7.79667V7.79455Z" fill="#0F0005"/>
<path d="M1.54717 27.869H7.73587L23.2076 1.10236H18.5661C17.6086 1.10236 16.723 1.61325 16.2453 2.4408L1.54717 27.869Z" fill="#0F0005"/>
<path d="M6.18869 3.77924H0L6.18869 14.4867L9.28304 9.13299L6.18869 3.77924Z" fill="#0F0005"/>
<path d="M71.175 3.11002V22.5153H75.1951V1.10236H73.185C72.0733 1.10236 71.175 2.00169 71.175 3.11002Z" fill="#0F0005"/>
<path d="M77.6469 3.11002V22.5153H81.667V1.10236H79.657C78.5473 1.10236 77.6469 2.00169 77.6469 3.11002Z" fill="#0F0005"/>
<path d="M96.2384 7.40822C94.9702 6.68411 93.5498 6.321 91.9773 6.321C90.4047 6.321 88.9865 6.68411 87.7162 7.40822C86.448 8.13233 85.4398 9.11399 84.6937 10.3511C83.9476 11.5882 83.5756 12.9731 83.5756 14.5015C83.5756 16.03 83.9476 17.4085 84.6937 18.6372C85.4377 19.8637 86.4459 20.8412 87.7162 21.5653C88.9844 22.2894 90.4047 22.6525 91.9773 22.6525C93.5498 22.6525 94.9681 22.2894 96.2384 21.5653C97.5086 20.8412 98.5147 19.8658 99.2608 18.6372C100.005 17.4106 100.379 16.0321 100.379 14.5015C100.379 12.971 100.007 11.5882 99.2608 10.3511C98.5147 9.11399 97.5086 8.13233 96.2384 7.40822ZM95.7543 16.7942C95.3718 17.4782 94.8518 18.0271 94.1987 18.4387C93.5435 18.8504 92.8037 19.0573 91.9773 19.0573C91.1509 19.0573 90.4365 18.8504 89.7707 18.4387C89.1049 18.0271 88.5828 17.4782 88.2002 16.7942C87.8177 16.1102 87.6253 15.346 87.6253 14.4994C87.6253 13.6529 87.8156 12.8591 88.2002 12.1751C88.5828 11.4911 89.107 10.9422 89.7707 10.5305C90.4365 10.1189 91.1699 9.91199 91.9773 9.91199C92.7847 9.91199 93.5181 10.1189 94.1839 10.5305C94.8497 10.9422 95.3718 11.4911 95.7543 12.1751C96.1369 12.8591 96.3292 13.6339 96.3292 14.4994C96.3292 15.365 96.1369 16.1102 95.7543 16.7942Z" fill="#0F0005"/>
<path d="M119.19 6.45612L116.664 15.5507L114.139 6.45612H109.945L107.419 15.5507L104.894 6.45612H100.721L105.181 22.5153H109.658L112.042 13.9273L114.426 22.5153H118.903L123.363 6.45612H119.19Z" fill="#0F0005"/>
<path d="M50.6728 6.45612C49.9542 6.45612 49.2905 6.83823 48.9312 7.45889L44.8709 14.4846L40.2294 6.454H35.5879L42.5502 18.5L37.1351 27.869H41.7766L54.1624 6.45823H50.6728V6.45612Z" fill="#0F0005"/>
<path d="M65.4492 17.968C65.0391 18.3395 64.5551 18.6245 63.9929 18.8251C63.3969 19.0362 62.7459 19.1417 62.0399 19.1417C61.334 19.1417 60.6724 19.0066 60.0573 18.7343C59.4423 18.462 58.9265 18.0735 58.5144 17.5711C58.1001 17.0665 57.8021 16.5028 57.6224 15.878H69.3087V14.7886C69.3087 13.1758 68.9705 11.7296 68.2941 10.4503C67.6178 9.17099 66.6941 8.16189 65.5232 7.42722C64.3522 6.69256 63.0101 6.32312 61.4967 6.32312C59.9833 6.32312 58.6095 6.68623 57.3794 7.41244C56.1471 8.13866 55.1749 9.1161 54.4583 10.3448C53.7418 11.5734 53.3846 12.9562 53.3846 14.4867C53.3846 16.0173 53.7587 17.4001 54.5048 18.6287C55.2509 19.8595 56.2655 20.8369 57.5463 21.561C58.8272 22.2873 60.256 22.6504 61.8307 22.6504C63.1031 22.6504 64.2465 22.4688 65.2674 22.1057C65.9438 21.865 66.6096 21.5294 67.2627 21.1008L65.4513 17.968H65.4492ZM58.3474 11.2357C58.7109 10.7628 59.1548 10.3933 59.679 10.1315C60.2032 9.86977 60.7781 9.73888 61.4037 9.73888C62.0293 9.73888 62.6 9.87399 63.1136 10.1463C63.6272 10.4187 64.0711 10.7923 64.4452 11.2652C64.8193 11.7381 65.0751 12.2891 65.2167 12.914H57.5569C57.7175 12.2701 57.9796 11.7106 58.3432 11.2357H58.3474Z" fill="#0F0005"/>
<path d="M152.387 6.15597H148.367V22.2151H152.387V6.15597Z" fill="#0F0005"/>
<path d="M150.377 4.28131C151.56 4.28131 152.52 3.32291 152.52 2.14066C152.52 0.958405 151.56 0 150.377 0C149.193 0 148.234 0.958405 148.234 2.14066C148.234 3.32291 149.193 4.28131 150.377 4.28131Z" fill="#0F0005"/>
<path d="M142.387 7.39519L138.412 16.9796L133.922 6.15597H129.57L136.23 22.2151H140.591L147.251 6.15597H144.243C143.429 6.15597 142.698 6.64575 142.385 7.39519H142.387Z" fill="#0F0005"/>
<path d="M166.914 14.1402C166.085 13.3654 164.895 12.8651 163.342 12.6434L160.315 12.1895C159.548 12.0882 158.998 11.9172 158.664 11.6765C158.33 11.4337 158.166 11.1023 158.166 10.678C158.166 10.2135 158.392 9.84196 158.846 9.55907C159.301 9.27618 159.901 9.13474 160.647 9.13474C161.454 9.13474 162.251 9.2614 163.037 9.51262C163.824 9.76596 164.745 10.1966 165.614 10.7223L167.284 7.83219C166.383 7.2453 165.426 6.80197 164.416 6.5043C163.314 6.1813 162.19 6.02086 161.04 6.02086C159.687 6.02086 158.523 6.22353 157.544 6.62464C156.566 7.02786 155.809 7.60208 155.274 8.3473C154.739 9.09252 154.471 9.97918 154.471 11.0073C154.471 12.2782 154.875 13.2999 155.682 14.0768C156.489 14.8537 157.679 15.3625 159.254 15.6032L162.281 16.057C162.966 16.1584 163.467 16.3294 163.779 16.57C164.092 16.8128 164.249 17.1337 164.249 17.5369C164.249 18.0415 163.972 18.4447 163.416 18.7466C162.86 19.0485 162.118 19.2005 161.19 19.2005C160.362 19.2005 159.535 19.0548 158.709 18.7614C157.994 18.5101 157.242 18.1407 156.454 17.6551C156.434 17.6425 156.413 17.6298 156.39 17.6171C156.287 17.5517 156.181 17.4863 156.075 17.4166V17.4208C155.948 17.3427 155.815 17.2604 155.688 17.1823L153.981 20.1378L154.019 20.1652C154.927 20.8746 156.001 21.4129 157.242 21.7866C158.483 22.1602 159.821 22.346 161.254 22.346C162.585 22.346 163.767 22.1201 164.796 21.6662C165.825 21.2123 166.643 20.598 167.248 19.8211C167.854 19.0464 168.157 18.1534 168.157 17.1443C168.157 15.9156 167.742 14.9128 166.916 14.1359L166.914 14.1402Z" fill="#0F0005"/>
<path d="M182.03 7.5493C180.86 6.53175 179.205 6.02297 177.066 6.02297C175.916 6.02297 174.77 6.15808 173.629 6.43042C172.648 6.66475 171.627 7.01519 170.566 7.47964L172.289 10.4605C173.001 10.1734 173.644 9.95385 174.219 9.80185C174.986 9.60129 175.702 9.49996 176.368 9.49996C177.459 9.49996 178.285 9.72585 178.849 10.1797C179.414 10.6336 179.697 11.3134 179.697 12.2212V13.3696C178.486 12.9453 177.194 12.7342 175.823 12.7342C173.825 12.7342 172.255 13.1522 171.116 13.9882C169.974 14.8242 169.406 15.9979 169.406 17.5116C169.406 18.4595 169.649 19.2955 170.133 20.0217C170.617 20.7479 171.293 21.3179 172.162 21.7296C173.029 22.1433 174.028 22.3502 175.159 22.3502C176.047 22.3502 176.865 22.2383 177.611 22.0167C178.357 21.795 179.054 21.4425 179.699 20.959V22.2151H183.787V11.8559C183.787 10.0024 183.201 8.56474 182.03 7.54719V7.5493ZM179.699 18.3286C179.234 18.6917 178.71 18.9598 178.124 19.1308C177.539 19.3018 176.913 19.3884 176.248 19.3884C175.36 19.3884 174.654 19.2131 174.128 18.8585C173.603 18.5059 173.341 18.0267 173.341 17.4229C173.341 16.8191 173.61 16.3399 174.145 15.9874C174.679 15.6348 175.421 15.4575 176.37 15.4575C176.996 15.4575 177.581 15.5082 178.127 15.6095C178.672 15.7108 179.196 15.8628 179.701 16.0634V18.3307L179.699 18.3286Z" fill="#0F0005"/>
</svg>
