<svg width="360" height="712" viewBox="0 0 360 712" fill="none" xmlns="http://www.w3.org/2000/svg">
<path d="M-65.0492 712C-74.2038 712 -83.3943 711.747 -92.6029 711.224C-129.347 709.148 -165.353 702.974 -199.646 692.865C-234.589 682.576 -266.72 668.496 -295.156 651.04C-325.107 632.645 -350.282 610.875 -369.979 586.325C-441.629 497.06 -461.56 408.932 -479.166 331.184C-490.231 282.246 -500.701 236.034 -523.101 197.602C-547.393 155.903 -584.282 125.883 -639.209 103.12C-664.041 92.8303 -689.325 86.6206 -714.391 84.653C-737.116 82.8659 -760.254 84.5266 -783.159 89.5991C-822.318 98.2639 -861.657 116.911 -900.095 145.054C-966.988 194.028 -1008.11 255.277 -1008.53 255.89C-1014.94 265.548 -1027.97 268.165 -1037.63 261.739C-1047.27 255.313 -1049.9 242.279 -1043.5 232.604C-1041.7 229.878 -998.489 165.289 -925.901 111.839C-882.651 79.9956 -837.924 58.7309 -792.926 48.6761C-735.962 35.9317 -678.854 41.1667 -623.17 64.2547C-589.796 78.0822 -562.35 94.3286 -539.23 113.897C-518.019 131.858 -500.899 152.292 -486.861 176.409C-461.218 220.437 -450.063 269.718 -438.259 321.887C-429.681 359.777 -420.815 398.949 -405.786 439.042C-388.918 484.008 -366.519 523.577 -337.289 559.988C-320.62 580.765 -299.067 599.34 -273.243 615.207C-247.978 630.732 -219.235 643.296 -187.843 652.538C-124.77 671.113 -54.5792 674.958 9.80896 663.387C36.2996 658.621 61.5826 651.311 84.9736 641.653C109.212 631.634 131.431 619.088 151.056 604.322C193.441 572.425 223.427 530.726 240.187 480.38C246.314 461.967 251.305 443.717 255.162 425.774C232.239 423.554 210.416 419.293 189.873 413.011C155.958 402.632 126.007 386.945 100.85 366.384C77.495 347.286 59.2039 324.848 46.5173 299.684C38.8405 284.466 33.5063 268.707 30.641 252.822C27.7756 236.882 27.4694 221.177 29.7219 206.158C32.0646 190.634 37.0925 176.211 44.6613 163.322C52.5723 149.855 63.0785 138.374 75.8732 129.222C121.303 96.7114 175.672 97.4515 221.301 131.208C260.135 159.946 288.14 209.083 300.16 269.592C307.314 305.568 308.593 344.596 304.16 385.356C306.142 385.302 308.143 385.23 310.143 385.14C354.348 383.226 402.409 373.894 452.94 357.376C544.125 327.591 614.333 302.464 673.874 278.31C733.144 254.266 782.305 230.979 828.619 205.039C919.299 154.242 994.391 95.6103 1108.03 6.85059L1111.09 4.44972C1120.23 -2.69871 1133.42 -1.05601 1140.56 8.09615C1147.69 17.2483 1146.05 30.4621 1136.92 37.6105L1133.85 40.0114C904.702 218.975 827.501 279.267 465.969 397.361C411.798 415.051 359.989 425.07 311.963 427.146C307.152 427.344 302.376 427.489 297.655 427.525C293.312 449.277 287.437 471.372 280.012 493.648C270.065 523.523 255.883 551.16 237.844 575.801C220.76 599.141 200.036 620.027 176.267 637.916C153.831 654.795 128.494 669.128 100.994 680.482C74.8459 691.277 46.6794 699.436 17.2516 704.743C-9.56335 709.563 -37.1531 712 -65.0673 712H-65.0492ZM146.911 147.418C130.854 147.418 115.177 152.798 100.327 163.43C84.451 174.803 74.3955 191.735 71.278 212.422C68.0521 233.777 72.5933 258.02 84.0184 280.711C93.8939 300.297 108.905 318.656 127.412 333.783C148.317 350.878 173.474 364.001 202.145 372.756C220.85 378.479 240.907 382.288 262.1 384.147C266.533 346.437 265.542 310.569 259.018 277.769C253.864 251.847 245.448 228.596 233.969 208.685C223.391 190.327 210.759 175.633 196.396 165.001C181.457 153.953 165.022 147.87 148.893 147.418C148.226 147.4 147.56 147.382 146.893 147.382L146.911 147.418Z" fill="url(#paint0_linear_560_9561)"/>
<defs>
<linearGradient id="paint0_linear_560_9561" x1="-1047" y1="356" x2="1145" y2="356" gradientUnits="userSpaceOnUse">
<stop stop-color="#FFBD1A"/>
<stop offset="1" stop-color="#FF6700"/>
</linearGradient>
</defs>
</svg>
