<svg width="1440" height="974" viewBox="0 0 1440 974" fill="none" xmlns="http://www.w3.org/2000/svg">
<path d="M699.399 960.769C690.476 962.818 681.462 964.629 672.37 966.18C636.093 972.38 599.619 974.422 563.933 972.245C527.575 970.038 493.107 963.506 461.485 952.858C428.177 941.633 398.768 926.05 374.077 906.531C284.264 835.567 245.114 754.136 210.553 682.301C188.816 637.081 168.268 594.385 137.835 561.941C104.826 526.737 62.1546 505.735 3.52595 495.843C-22.9796 491.373 -49.0112 490.98 -73.8826 494.672C-96.4302 498.017 -118.61 504.814 -139.798 514.885C-176.025 532.094 -210.192 559.073 -241.357 595.105C-295.591 657.808 -321.963 726.708 -322.229 727.399C-326.32 738.247 -338.433 743.714 -349.285 739.613C-360.12 735.507 -365.602 723.394 -361.532 712.532C-360.386 709.472 -332.725 636.85 -273.942 568.508C-238.916 527.793 -200.083 497.057 -158.477 477.186C-105.811 452.015 -48.9802 444.336 10.4588 454.375C46.0814 460.382 76.4671 470.073 103.381 483.97C128.073 496.728 149.332 512.812 168.412 533.175C203.259 570.347 225.161 615.881 248.342 664.084C265.183 699.094 282.591 735.287 306.213 770.999C332.717 811.05 363.405 844.601 400.042 873.545C420.939 890.065 446.102 903.345 474.822 913.03C502.921 922.505 533.747 928.317 566.411 930.299C632.041 934.286 701.312 922.324 761.477 896.635C786.229 886.061 809.234 873.277 829.87 858.629C851.251 843.439 870.099 826.239 885.921 807.455C920.091 766.88 939.984 719.527 945.05 666.707C946.9 647.391 947.681 628.486 947.423 610.135C924.585 613.102 902.362 613.834 880.934 612.309C845.556 609.784 812.854 601.198 783.734 586.79C756.697 573.403 733.847 555.628 715.85 533.942C704.962 520.829 696.236 506.663 689.888 491.822C683.528 476.929 679.714 461.691 678.548 446.549C677.357 430.894 679.029 415.711 683.521 401.455C688.217 386.56 695.887 373.019 706.309 361.235C743.31 319.381 796.465 307.933 848.492 330.621C892.773 349.938 931.065 391.56 956.323 447.844C971.348 481.306 981.33 519.057 986.132 559.776C988.052 559.28 989.986 558.762 991.915 558.226C1034.57 546.467 1079.32 526.614 1124.87 499.206C1207.08 449.768 1269.88 409.563 1322.51 372.697C1374.89 335.996 1417.59 302.297 1456.93 266.65C1533.94 196.845 1594 122.894 1684.89 10.9513L1687.34 7.92563C1694.65 -1.08637 1707.87 -2.43778 1716.87 4.88497C1725.88 12.2077 1727.24 25.4533 1719.93 34.4653L1717.48 37.4909C1534.2 263.203 1472.45 339.245 1146.52 535.26C1097.69 564.626 1049.43 585.987 1003.09 598.759C998.446 600.029 993.824 601.239 989.23 602.331C989.866 624.503 989.085 647.353 986.835 670.725C983.826 702.069 976.19 732.179 964.123 760.232C952.697 786.804 937.174 811.798 918.011 834.554C899.922 856.025 878.436 875.666 854.175 892.887C831.107 909.26 805.481 923.517 777.987 935.276C752.931 945.975 726.587 954.525 699.381 960.773L699.399 960.769ZM779.617 363.07C763.968 366.663 749.892 375.415 737.799 389.102C724.871 403.739 718.86 422.492 720.452 443.353C722.088 464.888 731.94 487.5 748.154 507.058C762.162 523.936 780.902 538.469 802.325 549.071C826.525 561.053 853.982 568.213 883.885 570.329C903.396 571.719 923.797 570.942 944.868 568.011C940.749 530.266 931.755 495.529 918.055 465.022C907.23 440.911 893.824 420.134 878.18 403.297C863.761 387.772 848.16 376.278 831.782 369.13C814.749 361.707 797.37 359.456 781.549 362.626C780.895 362.758 780.242 362.889 779.592 363.039L779.617 363.07Z" fill="url(#paint0_linear_320_4042)"/>
<defs>
<linearGradient id="paint0_linear_320_4042" x1="-337.32" y1="833.58" x2="1799.07" y2="342.969" gradientUnits="userSpaceOnUse">
<stop stop-color="#CC0044"/>
<stop offset="1" stop-color="#4FA3CC"/>
</linearGradient>
</defs>
</svg>
